<svg width="73" height="73" viewBox="0 0 73 73" fill="none" xmlns="http://www.w3.org/2000/svg">
<rect width="73" height="73" rx="8" fill="#D1DDFB"/>
<path opacity="0.3" d="M47.85 40.55C47.131 40.55 46.4191 40.4084 45.7548 40.1332C45.0906 39.8581 44.487 39.4548 43.9786 38.9464C43.4702 38.438 43.0669 37.8344 42.7918 37.1702C42.5166 36.5059 42.375 35.794 42.375 35.075C42.375 34.356 42.5166 33.644 42.7918 32.9798C43.0669 32.3155 43.4702 31.712 43.9786 31.2036C44.487 30.6952 45.0906 30.2919 45.7548 30.0167C46.4191 29.7416 47.131 29.6 47.85 29.6C49.3021 29.6 50.6946 30.1768 51.7214 31.2036C52.7482 32.2303 53.325 33.6229 53.325 35.075C53.325 36.527 52.7482 37.9196 51.7214 38.9464C50.6946 39.9731 49.3021 40.55 47.85 40.55ZM31.425 35.075C29.4889 35.075 27.6321 34.3059 26.2631 32.9369C24.8941 31.5678 24.125 29.7111 24.125 27.775C24.125 25.8389 24.8941 23.9821 26.2631 22.6131C27.6321 21.2441 29.4889 20.475 31.425 20.475C33.3611 20.475 35.2179 21.2441 36.5869 22.6131C37.9559 23.9821 38.725 25.8389 38.725 27.775C38.725 29.7111 37.9559 31.5678 36.5869 32.9369C35.2179 34.3059 33.3611 35.075 31.425 35.075Z" fill="#1D71B8"/>
<path d="M47.1218 42.375C53.3396 42.4443 58.4149 45.587 58.7963 52.23C58.8127 52.4983 58.7963 53.325 57.8072 53.325H50.77C50.77 49.2187 49.4122 45.4264 47.1218 42.375ZM15.0018 51.865C15.7081 43.1524 22.7745 38.725 31.3939 38.725C40.132 38.725 47.3116 42.9097 47.8463 51.865C47.8682 52.2209 47.8463 53.325 46.4757 53.325H16.3267C15.8705 53.325 14.9635 52.3395 15.0018 51.865Z" fill="#1D71B8"/>
</svg>
