<svg width="73" height="73" viewBox="0 0 73 73" fill="none" xmlns="http://www.w3.org/2000/svg">
<rect width="73" height="73" rx="8" fill="#F3D1FB"/>
<path fill-rule="evenodd" clip-rule="evenodd" d="M39.6374 24.95C39.3399 29.122 38.3234 31.8595 36.586 33.1625C36.586 33.1625 37.8124 21.3 34.2956 17.65C34.2956 17.65 34.2956 24.8204 31.038 30.686C29.5105 33.4363 27.7786 36.1592 27.7786 39.811C27.7786 45.025 34.1077 46.85 36.909 46.85C40.1904 46.85 46.0249 45.025 46.0249 38.6375C46.0249 36.0095 43.8951 31.447 39.6374 24.95Z" fill="#662483"/>
<path opacity="0.3" fill-rule="evenodd" clip-rule="evenodd" d="M32.739 50.5H41.061C41.4438 50.5003 41.8169 50.621 42.1274 50.845C42.4379 51.069 42.6701 51.385 42.7911 51.7483L44.2 55.975H29.6L31.0089 51.7483C31.13 51.3847 31.3624 51.0685 31.6733 50.8445C31.9841 50.6204 32.3576 50.4999 32.7408 50.5H32.739Z" fill="#662483"/>
</svg>
