<svg width="73" height="73" viewBox="0 0 73 73" fill="none" xmlns="http://www.w3.org/2000/svg">
<rect width="73" height="73" rx="8" fill="#FBDCD1"/>
<path fill-rule="evenodd" clip-rule="evenodd" d="M43.7999 43.1284V36.5C43.7999 35.0479 43.2231 33.6553 42.1963 32.6285C41.1696 31.6018 39.777 31.025 38.3249 31.025H25.8456V24.6849C25.8456 23.4623 26.3313 22.2897 27.1958 21.4252C28.0603 20.5606 29.2329 20.075 30.4555 20.075H51.9723C53.1949 20.075 54.3675 20.5606 55.232 21.4252C56.0965 22.2897 56.5822 23.4623 56.5822 24.6849V38.5184L56.6133 47.0594C56.6143 47.2404 56.5615 47.4177 56.4615 47.5686C56.3616 47.7195 56.219 47.8373 56.0519 47.9069C55.8848 47.9766 55.7007 47.995 55.5232 47.9598C55.3456 47.9245 55.1825 47.8373 55.0547 47.7091L50.474 43.1284H43.7999Z" fill="#E94E1B"/>
<path opacity="0.3" fill-rule="evenodd" clip-rule="evenodd" d="M18.2227 47.4499V38.3249C18.2227 37.3569 18.6072 36.4285 19.2917 35.744C19.9762 35.0595 20.9046 34.6749 21.8727 34.6749H36.4727C37.4407 34.6749 38.3691 35.0595 39.0536 35.744C39.7381 36.4285 40.1227 37.3569 40.1227 38.3249V47.4499C40.1227 48.418 39.7381 49.3464 39.0536 50.0309C38.3691 50.7154 37.4407 51.0999 36.4727 51.0999H22.0844L19.8141 53.2717C19.6851 53.3953 19.5226 53.4784 19.3468 53.5105C19.1711 53.5427 18.9897 53.5226 18.8253 53.4526C18.6609 53.3826 18.5206 53.2659 18.4219 53.117C18.3232 52.968 18.2704 52.7934 18.2701 52.6147V48.0412C18.2384 47.8457 18.2225 47.648 18.2227 47.4499ZM26.4625 40.1499C26.2205 40.1499 25.9884 40.2461 25.8173 40.4172C25.6462 40.5883 25.55 40.8204 25.55 41.0624C25.55 41.3044 25.6462 41.5365 25.8173 41.7077C25.9884 41.8788 26.2205 41.9749 26.4625 41.9749H35.5875C35.8295 41.9749 36.0616 41.8788 36.2328 41.7077C36.4039 41.5365 36.5 41.3044 36.5 41.0624C36.5 40.8204 36.4039 40.5883 36.2328 40.4172C36.0616 40.2461 35.8295 40.1499 35.5875 40.1499H26.4625ZM31.9375 43.7999C31.6955 43.7999 31.4634 43.8961 31.2923 44.0672C31.1212 44.2383 31.025 44.4704 31.025 44.7124C31.025 44.9544 31.1212 45.1865 31.2923 45.3577C31.4634 45.5288 31.6955 45.6249 31.9375 45.6249H35.5875C35.8295 45.6249 36.0616 45.5288 36.2328 45.3577C36.4039 45.1865 36.5 44.9544 36.5 44.7124C36.5 44.4704 36.4039 44.2383 36.2328 44.0672C36.0616 43.8961 35.8295 43.7999 35.5875 43.7999H31.9375Z" fill="#E94E1B"/>
</svg>
