<svg width="73" height="73" viewBox="0 0 73 73" fill="none" xmlns="http://www.w3.org/2000/svg">
<rect width="73" height="73" rx="8" fill="#D1D5FB"/>
<path d="M46.5213 29.8501C46.3492 29.6771 46.2135 29.4715 46.1222 29.2452C46.031 29.0189 45.986 28.7766 45.99 28.5327C45.994 28.2887 46.0469 28.0481 46.1455 27.8249C46.2441 27.6017 46.3865 27.4006 46.5641 27.2334C46.7418 27.0662 46.9512 26.9364 47.18 26.8515C47.4087 26.7666 47.6522 26.7285 47.8959 26.7394C48.1397 26.7502 48.3788 26.8098 48.5991 26.9147C48.8194 27.0195 49.0164 27.1675 49.1785 27.3498L56.4785 35.1061C56.7968 35.4445 56.9739 35.8916 56.9739 36.3562C56.9739 36.8208 56.7968 37.2678 56.4785 37.6063L49.1785 45.3626C48.8433 45.6993 48.39 45.892 47.915 45.8998C47.4399 45.9076 46.9805 45.7298 46.6345 45.4042C46.2885 45.0786 46.083 44.6309 46.0619 44.1562C46.0408 43.6815 46.2056 43.2174 46.5213 42.8623L52.6442 36.3562L46.5213 29.8501ZM27.2785 29.8501L21.1557 36.3562L27.2785 42.8623C27.5943 43.2174 27.7591 43.6815 27.738 44.1562C27.7168 44.6309 27.5114 45.0786 27.1654 45.4042C26.8193 45.7298 26.36 45.9076 25.8849 45.8998C25.4098 45.892 24.9565 45.6993 24.6213 45.3626L17.3213 37.6063C17.0031 37.2678 16.8259 36.8208 16.8259 36.3562C16.8259 35.8916 17.0031 35.4445 17.3213 35.1061L24.6213 27.3498C24.9565 27.0131 25.4098 26.8203 25.8849 26.8126C26.36 26.8048 26.8193 26.9826 27.1654 27.3082C27.5114 27.6338 27.7168 28.0815 27.738 28.5562C27.7591 29.0308 27.5943 29.495 27.2785 29.8501Z" fill="#334E68"/>
<path opacity="0.3" d="M41.9692 24.0327C42.23 23.0591 41.6523 22.0584 40.6787 21.7975C39.7051 21.5367 38.7044 22.1144 38.4435 23.088L31.8307 47.7674C31.5699 48.741 32.1476 49.7417 33.1212 50.0026C34.0948 50.2634 35.0955 49.6857 35.3564 48.7121L41.9692 24.0327Z" fill="#334E68"/>
</svg>
