<svg width="18" height="18" viewBox="0 0 18 18" fill="none" xmlns="http://www.w3.org/2000/svg">
<path fill-rule="evenodd" clip-rule="evenodd" d="M17.5333 9.32228C17.5333 9.89938 17.4746 10.4757 17.3592 11.0374C17.2467 11.5858 17.08 12.1242 16.8617 12.6389C16.6483 13.1445 16.3837 13.6317 16.0745 14.0861C15.77 14.5376 15.4191 14.9611 15.0337 15.3472C14.6474 15.7317 14.2224 16.0816 13.7711 16.3875C13.3152 16.6945 12.8273 16.9587 12.3215 17.173C11.806 17.3902 11.2664 17.5567 10.7184 17.669C10.1559 17.7847 9.57755 17.8438 8.99962 17.8438C8.42126 17.8438 7.8429 17.7847 7.28121 17.669C6.73244 17.5567 6.19283 17.3902 5.67779 17.173C5.17195 16.9587 4.68357 16.6945 4.22772 16.3875C3.77645 16.0816 3.35143 15.7317 2.96599 15.3472C2.58015 14.9611 2.22928 14.5376 1.92427 14.0861C1.61675 13.6317 1.35172 13.1445 1.13755 12.6389C0.919183 12.1242 0.752114 11.5858 0.639188 11.0374C0.525025 10.4757 0.466675 9.89938 0.466675 9.32228C0.466675 8.74476 0.524992 8.16723 0.639221 7.60672C0.752147 7.05831 0.919216 6.51907 1.13759 6.00521C1.35175 5.49926 1.61678 5.01162 1.9243 4.55723C2.22931 4.10538 2.58018 3.68261 2.96602 3.29605C3.35146 2.91157 3.77648 2.56251 4.22775 2.2571C4.6836 1.94876 5.17198 1.68458 5.67783 1.46986C6.19286 1.2522 6.73244 1.08537 7.28124 0.973879C7.84294 0.859047 8.4213 0.800781 8.99966 0.800781C9.57758 0.800781 10.1559 0.859047 10.7185 0.973879C11.2664 1.08541 11.806 1.25224 12.3215 1.46986C12.8273 1.68455 13.3153 1.94876 13.7711 2.2571C14.2224 2.56251 14.6475 2.91157 15.0337 3.29605C15.4191 3.68261 15.77 4.10538 16.0746 4.55723C16.3837 5.01162 16.6483 5.4993 16.8617 6.00521C17.08 6.51907 17.2467 7.05831 17.3592 7.60672C17.4746 8.16723 17.5333 8.74476 17.5333 9.32228ZM5.89026 2.74016C3.85805 3.69843 2.34131 5.56832 1.86836 7.82186C2.06048 7.82353 5.0973 7.86181 8.59622 6.93349C7.33492 4.69576 5.98735 2.8696 5.89026 2.74016ZM9.2 8.05406C5.44774 9.17579 1.84711 9.09508 1.71795 9.09011C1.71585 9.16832 1.71211 9.24403 1.71211 9.32228C1.71211 11.1917 2.41839 12.896 3.57929 14.1847C3.57678 14.1809 5.57108 10.6479 9.50377 9.37804C9.59876 9.34642 9.69546 9.31811 9.79128 9.29066C9.60838 8.87709 9.40875 8.46266 9.2 8.05406ZM13.8124 3.8607C12.5293 2.731 10.8447 2.04574 8.9996 2.04574C8.40748 2.04574 7.83286 2.11732 7.28242 2.24963C7.39157 2.39611 8.76042 4.2094 10.0067 6.49452C12.7565 5.46514 13.7944 3.88732 13.8124 3.8607ZM10.288 10.4965C10.2718 10.5018 10.2556 10.5065 10.2397 10.5123C5.93997 12.0091 4.53583 15.0255 4.52064 15.0585C5.75781 16.0192 7.30956 16.5988 8.99965 16.5988C10.0088 16.5988 10.9701 16.3936 11.8448 16.0221C11.7368 15.3863 11.3135 13.1578 10.288 10.4965ZM13.0719 15.3572C14.7082 14.2546 15.8703 12.5037 16.1945 10.4756C16.0445 10.4274 14.0057 9.78284 11.6535 10.1594C12.6093 12.7825 12.9977 14.9187 13.0719 15.3572ZM10.5676 7.57886C10.7368 7.92589 10.9006 8.27909 11.0518 8.63405C11.1056 8.76139 11.1581 8.88623 11.2093 9.01103C13.7128 8.69646 16.1792 9.22572 16.2846 9.24733C16.2679 7.52226 15.65 5.93903 14.6275 4.69954C14.6137 4.71905 13.4449 6.40546 10.5676 7.57886Z" fill="#070031"/>
</svg>
