<svg xmlns="http://www.w3.org/2000/svg" width="15.736" height="15.736" viewBox="0 0 15.736 15.736"><defs><style>.a{fill:none;fill-rule:evenodd;}.b{fill:#fff;}</style></defs><g transform="translate(2 2)"><g transform="translate(-2 -2)"><g transform="translate(0 0)"><path class="a" d="M0,0H15.736V15.736H0Z"/><path class="b" d="M14.589,8.938a.94.94,0,0,1,.629.89v5.665a1.574,1.574,0,0,1-1.574,1.574H3.574A1.574,1.574,0,0,1,2,15.494V8.943a.942.942,0,0,1,.4-.771l1.61-1.119a.315.315,0,1,1,.359.516l-1.61,1.12a.31.31,0,0,0-.133.249.943.943,0,0,1,.793.076l5.187,3.052L13.8,9.014a.942.942,0,0,1,.793-.076.31.31,0,0,0-.133-.25L12.893,7.6a.315.315,0,0,1,.359-.516l1.563,1.087a.94.94,0,0,1,.4.771v.9a.315.315,0,1,1-.629,0v-.9S14.589,8.94,14.589,8.938Z" transform="translate(-0.741 -2.59)"/><path class="b" d="M5,6.71V2.315A.315.315,0,0,1,5.315,2h8.812a.315.315,0,0,1,.315.315V6.71L9.721,9.487Zm2.833-.3h3.777a.315.315,0,0,0,0-.629H7.833a.315.315,0,1,0,0,.629Zm0-1.888h3.777a.315.315,0,0,0,0-.629H7.833a.315.315,0,1,0,0,.629Z" transform="translate(-1.853 -0.741)"/></g></g></g></svg>