<svg width="18" height="18" viewBox="0 0 18 18" fill="none" xmlns="http://www.w3.org/2000/svg">
<path fill-rule="evenodd" clip-rule="evenodd" d="M9.00081 0.800781C6.68327 0.800781 6.39243 0.810915 5.48219 0.852337C4.57374 0.893938 3.95364 1.03776 3.41106 1.24879C2.84981 1.46674 2.37372 1.7583 1.8994 2.2328C1.42473 2.70711 1.13317 3.18321 0.914502 3.74428C0.702944 4.28704 0.558942 4.90731 0.518053 5.81541C0.477342 6.72564 0.466675 7.01667 0.466675 9.3342C0.466675 11.6517 0.476986 11.9417 0.518231 12.8519C0.560009 13.7604 0.703833 14.3805 0.914679 14.9231C1.13282 15.4843 1.42437 15.9604 1.89887 16.4347C2.37301 16.9094 2.8491 17.2017 3.40999 17.4196C3.95293 17.6306 4.57321 17.7745 5.48148 17.8161C6.39171 17.8575 6.68238 17.8676 8.99974 17.8676C11.3175 17.8676 11.6074 17.8575 12.5176 17.8161C13.4261 17.7745 14.0469 17.6306 14.5898 17.4196C15.1509 17.2017 15.6263 16.9094 16.1004 16.4347C16.5751 15.9604 16.8667 15.4843 17.0853 14.9232C17.2951 14.3805 17.4391 13.7602 17.4818 12.8521C17.5227 11.9419 17.5333 11.6517 17.5333 9.3342C17.5333 7.01667 17.5227 6.72582 17.4818 5.81559C17.4391 4.90713 17.2951 4.28704 17.0853 3.74446C16.8667 3.18321 16.5751 2.70711 16.1004 2.2328C15.6258 1.75812 15.1511 1.46657 14.5893 1.24879C14.0453 1.03776 13.4249 0.893938 12.5164 0.852337C11.6062 0.810915 11.3164 0.800781 8.99814 0.800781H9.00081ZM8.23525 2.33855C8.46245 2.3382 8.71597 2.33855 9.00077 2.33855C11.2792 2.33855 11.5492 2.34673 12.449 2.38762C13.281 2.42566 13.7326 2.56469 14.0334 2.68149C14.4316 2.83616 14.7155 3.02105 15.014 3.31972C15.3127 3.61839 15.4976 3.90283 15.6526 4.30106C15.7694 4.60151 15.9086 5.05307 15.9464 5.88508C15.9873 6.78464 15.9962 7.05487 15.9962 9.33222C15.9962 11.6096 15.9873 11.8798 15.9464 12.7794C15.9084 13.6114 15.7694 14.0629 15.6526 14.3634C15.4979 14.7616 15.3127 15.0452 15.014 15.3437C14.7153 15.6423 14.4318 15.8272 14.0334 15.9819C13.7329 16.0992 13.281 16.2379 12.449 16.2759C11.5494 16.3168 11.2792 16.3257 9.00077 16.3257C6.72217 16.3257 6.45212 16.3168 5.55256 16.2759C4.72055 16.2375 4.26899 16.0985 3.96801 15.9817C3.56978 15.827 3.28533 15.6422 2.98666 15.3435C2.68799 15.0448 2.5031 14.7611 2.34808 14.3627C2.23128 14.0622 2.09208 13.6107 2.05421 12.7787C2.01332 11.8791 2.00514 11.6089 2.00514 9.33009C2.00514 7.05131 2.01332 6.78251 2.05421 5.88294C2.09226 5.05093 2.23128 4.59937 2.34808 4.29857C2.50275 3.90035 2.68799 3.6159 2.98666 3.31723C3.28533 3.01856 3.56978 2.83367 3.96801 2.67864C4.26881 2.56131 4.72055 2.42264 5.55256 2.38442C6.33977 2.34886 6.64484 2.3382 8.23525 2.33642V2.33855ZM13.5558 3.75546C12.9905 3.75546 12.5318 4.2136 12.5318 4.77911C12.5318 5.34445 12.9905 5.80312 13.5558 5.80312C14.1212 5.80312 14.5799 5.34445 14.5799 4.77911C14.5799 4.21377 14.1212 3.75546 13.5558 3.75546ZM9.00082 4.95191C6.58071 4.95191 4.61855 6.91407 4.61855 9.33418C4.61855 11.7543 6.58071 13.7156 9.00082 13.7156C11.4209 13.7156 13.3824 11.7543 13.3824 9.33418C13.3824 6.91407 11.4209 4.95191 9.00082 4.95191ZM9.00079 6.48971C10.5717 6.48971 11.8453 7.76314 11.8453 9.33418C11.8453 10.905 10.5717 12.1787 9.00079 12.1787C7.42975 12.1787 6.15632 10.905 6.15632 9.33418C6.15632 7.76314 7.42975 6.48971 9.00079 6.48971Z" fill="#070031"/>
</svg>
