<svg width="16" height="14" viewBox="0 0 16 14" fill="none" xmlns="http://www.w3.org/2000/svg">
<path fill-rule="evenodd" clip-rule="evenodd" d="M7.5208 4.33933L7.55438 4.89296L6.99479 4.82517C4.95791 4.5653 3.17843 3.684 1.66756 2.20387L0.928908 1.46946L0.73865 2.0118C0.33575 3.22076 0.593158 4.49751 1.43253 5.35621C1.8802 5.83075 1.77948 5.89855 1.00725 5.61608C0.73865 5.52569 0.503625 5.4579 0.481242 5.49179C0.4029 5.57088 0.6715 6.59907 0.884142 7.00582C1.17513 7.57075 1.76828 8.12439 2.4174 8.45205L2.96579 8.71192L2.31668 8.72322C1.68994 8.72322 1.66756 8.73452 1.73471 8.97179C1.95854 9.70621 2.84268 10.4858 3.82755 10.8248L4.52143 11.0621L3.91708 11.4236C3.02175 11.9433 1.96973 12.2371 0.917717 12.2597C0.414092 12.271 0 12.3162 0 12.3501C0 12.4631 1.36538 13.0958 2.15999 13.3444C4.54382 14.0788 7.37531 13.7624 9.50173 12.5083C11.0126 11.6157 12.5235 9.84179 13.2286 8.12439C13.6091 7.2092 13.9896 5.53699 13.9896 4.73478C13.9896 4.21504 14.0232 4.14725 14.6499 3.52582C15.0192 3.16426 15.3662 2.76881 15.4333 2.65582C15.5452 2.44115 15.534 2.44115 14.9633 2.63322C14.012 2.97218 13.8777 2.92699 14.3477 2.41855C14.6947 2.05699 15.1088 1.40167 15.1088 1.20959C15.1088 1.17569 14.9409 1.23219 14.7506 1.33387C14.5492 1.44686 14.1015 1.61634 13.7658 1.71803L13.1614 1.91011L12.613 1.53725C12.3108 1.33387 11.8856 1.1079 11.6617 1.04011C11.0909 0.881926 10.218 0.904523 9.70318 1.0853C8.30422 1.59374 7.42008 2.90439 7.5208 4.33933Z" fill="#070031"/>
</svg>
