<svg width="140" height="44" viewBox="0 0 140 44" fill="none" xmlns="http://www.w3.org/2000/svg">
<g opacity="0.8">
<path d="M76.822 13.9143C78.2683 14.6801 79.4787 15.8211 80.3247 17.216C81.1747 18.6159 81.5997 20.1862 81.5997 21.9269C81.5997 23.6845 81.1747 25.2715 80.3247 26.6876C79.4819 28.0995 78.2719 29.2596 76.822 30.0459C75.3361 30.859 73.6751 31.2673 71.839 31.271C70.0029 31.2747 68.3415 30.8682 66.8549 30.0514C65.4017 29.2716 64.1905 28.1119 63.3522 26.6976C62.4965 25.2518 62.0556 23.6008 62.0772 21.9235C62.0772 20.1829 62.5022 18.6126 63.3522 17.2127C64.1979 15.8175 65.4084 14.6765 66.8549 13.911C68.3423 13.1097 70.0036 12.7087 71.839 12.708C73.6744 12.7073 75.3354 13.1094 76.822 13.9143ZM69.4038 17.3701C68.6378 17.8329 68.0107 18.4914 67.5878 19.2771C67.146 20.1055 66.9162 21.0292 66.9185 21.9668C66.9208 22.9044 67.1553 23.827 67.6012 24.6532C68.0307 25.4372 68.6556 26.0984 69.4161 26.5734C70.1563 27.0368 71.0145 27.2799 71.8892 27.2741C72.7584 27.2792 73.6105 27.0347 74.3433 26.5701C75.0931 26.0975 75.7023 25.4346 76.1081 24.6498C76.5313 23.8162 76.7518 22.8955 76.7518 21.9618C76.7518 21.0281 76.5313 20.1074 76.1081 19.2737C75.7044 18.491 75.0944 17.8319 74.3433 17.3668C73.6077 16.9099 72.7566 16.6703 71.8892 16.6761C71.0118 16.6723 70.1509 16.9128 69.4038 17.3701Z" fill="#34495E"/>
<path d="M95.8225 13.8754C97.2796 14.6119 98.4948 15.7466 99.3252 17.1461C100.161 18.5505 100.579 20.1611 100.578 21.9778C100.577 23.7946 100.156 25.4097 99.3129 26.8229C98.4666 28.2365 97.2269 29.3766 95.7433 30.1058C94.2061 30.8826 92.4432 31.271 90.4546 31.271H82.5947V12.7113H90.6398C92.5934 12.7113 94.321 13.0993 95.8225 13.8754ZM93.2791 26.6898C94.0166 26.2385 94.6082 25.5863 94.9836 24.8106C95.4054 23.9445 95.6163 22.992 95.5994 22.03C95.5994 20.9715 95.3819 20.0361 94.9468 19.2238C94.536 18.4381 93.9119 17.7824 93.1453 17.3313C92.3534 16.8737 91.4507 16.6402 90.535 16.6561H87.4695V27.3517H90.7726C91.6532 27.3679 92.5207 27.1386 93.2769 26.6898H93.2791Z" fill="#34495E"/>
<path d="M111.551 12.7091H106.541L98.5264 31.2655H103.532L104.839 27.9826H112.91L114.19 31.2655H114.548L117.954 27.8795L111.551 12.7091ZM106.308 24.2806L108.916 17.6639L111.47 24.2806H106.308Z" fill="#34495E"/>
<path d="M52.5205 12.7102V16.2503L47.7561 20.9856V12.7102H52.5205Z" fill="#34495E"/>
<path d="M50.8215 26.3162L52.5205 28.0047V31.2909H47.7561V23.265L49.9816 25.4758L50.8215 26.3162Z" fill="#34495E"/>
<path d="M55.9407 22.1275L65.1593 31.2899H58.416L53.4096 26.3151L52.5685 25.4747L49.1974 22.1275L52.5685 18.777L53.4096 17.9366L58.6703 12.7091H65.4136L55.9407 22.1275Z" fill="#34495E"/>
<path d="M140 12.7091L131.803 20.8592L129.708 18.777L128.867 17.9366L128.432 17.5042L133.257 12.7091H140Z" fill="#34495E"/>
<path d="M139.75 31.2898H133.006L128.432 26.7475L128.867 26.3151L129.708 25.4747L131.803 23.3959L139.75 31.2898Z" fill="#34495E"/>
<path d="M130.492 22.1275L127.121 25.4747L126.28 26.3151L121.27 31.2899H114.526L117.954 27.8828L123.749 22.1275L114.276 12.7091H121.02L126.28 17.9366L127.121 18.777L130.492 22.1275Z" fill="#34495E"/>
<path d="M0.147217 41.0187L3.15687 43.9911L0.157256 44L0.147217 41.0187Z" fill="#34495E"/>
<path d="M12.2482 43.9612L7.57759 43.9778L1.45343 37.9276L0.132666 36.626L0.125973 34.5871L0.118164 31.9839L1.43335 33.28L3.77927 35.6005L12.2482 43.9612Z" fill="#34495E"/>
<path d="M21.3386 43.9324L16.668 43.9468L5.98471 33.3953L3.63544 31.0781L1.41892 28.8862L0.103735 27.5901L0.0981575 25.5523L0.0892334 22.9491L1.40219 24.2452L3.74588 26.5601L5.96463 28.7487L8.31055 31.0692L21.3386 43.9324Z" fill="#34495E"/>
<path d="M30.4288 43.9046L25.7582 43.919L10.5147 28.8639L8.16547 26.5456L5.95006 24.3548L3.60637 22.0421L1.39097 19.8513L0.0757809 18.5552L0.0702034 16.5174L0.0612793 13.9142L1.37312 15.2103L3.71681 17.5252L5.93333 19.7127L8.27702 22.0288L10.4924 24.2163L12.8417 26.5379L30.4288 43.9046Z" fill="#34495E"/>
<path d="M39.5281 43.8758L34.8497 43.8902L15.046 24.3327L12.6967 22.0144L10.4813 19.8236L8.13765 17.5108L5.9189 15.32L3.57856 13.0073L1.35981 10.8165L0.0468503 9.52039L0.0412727 7.48148L0.0323486 4.87048L1.35088 6.1721L3.69457 8.48707L5.90998 10.6757L8.25367 12.9906L10.4702 15.1792L12.8139 17.4942L15.0293 19.6817L17.3752 22L39.5281 43.8758Z" fill="#34495E"/>
<path d="M0.0100396 3.10554L2.99961 0.114258L0 0.124236L0.0100396 3.10554Z" fill="#34495E"/>
<path d="M12.0887 0.0876465L3.69452 8.48718L1.35083 6.17221L7.41921 0.10206L12.0887 0.0876465Z" fill="#34495E"/>
<path d="M21.179 0.0565186L8.2536 12.9907L5.90991 10.6757L16.5095 0.0731491L21.179 0.0565186Z" fill="#34495E"/>
<path d="M30.2705 0.0288086L12.8139 17.4942L10.4702 15.1792L25.5999 0.042113L30.2705 0.0288086Z" fill="#34495E"/>
<path d="M39.3686 0L17.3752 22L15.0293 19.6817L34.6902 0.0144131L39.3686 0Z" fill="#34495E"/>
</g>
</svg>
