<svg width="153" height="20" viewBox="0 0 153 20" fill="none" xmlns="http://www.w3.org/2000/svg">
<g clip-path="url(#clip0)">
<path d="M122.598 4.30366V15.7024H133.998V19.5H118.794V0.5H133.998V4.30366H122.598Z" fill="#5D6D7E"/>
<path d="M153 0.5V11.9049H147.297V19.5H143.499V11.9049H137.796V0.5H141.6V8.10122H149.196V0.5H153Z" fill="#5D6D7E"/>
<path d="M65.5916 4.30366V15.7024H73.1875V11.9049H69.3895V8.10122H76.9916V19.5H61.7875V0.5H76.9916V4.30366H65.5916Z" fill="#5D6D7E"/>
<path d="M42.7853 0.5V19.5H46.5833V11.9049H54.1853V19.5H58.0077V0.5H42.7853ZM54.1853 8.10122H46.5833V4.30366H54.1853V8.10122Z" fill="#5D6D7E"/>
<path d="M84.5875 4.30366V8.10122H95.9937V11.9049H84.5875V15.7024H95.9937V19.5H80.7896V0.5H95.9937V4.30366H84.5875Z" fill="#5D6D7E"/>
<path d="M114.996 0.5V19.5H111.198L111.192 19.4939L108.78 15.7024L106.356 11.9049L103.932 8.10122L103.596 7.57005V19.5H99.7916V0.5H103.596L106.014 4.30366L108.438 8.10122L110.862 11.9049L111.192 12.4238V0.5H114.996Z" fill="#5D6D7E"/>
<path d="M3.79798 15.7024H11.4V11.9049H7.60207V8.10122H15.2041V19.5H0V0.5H15.2041V4.30366H3.79798V15.7024Z" fill="#5D6D7E"/>
<path d="M22.8001 15.7024H30.4021V11.9049H26.6041V8.10122H34.2062V19.5H19.0021V0.5H34.2062V4.30366H22.8001V15.7024Z" fill="#5D6D7E"/>
<path d="M22.8001 8.1012V11.9049H34.1941V8.1012H22.8001ZM5.70312 11.9049H19.0022V8.1012H7.60212L5.70312 11.9049Z" fill="#5D6D7E"/>
</g>
<defs>
<clipPath id="clip0">
<rect width="153" height="19" fill="white" transform="translate(0 0.5)"/>
</clipPath>
</defs>
</svg>
