<svg width="177" height="44" viewBox="0 0 177 44" fill="none" xmlns="http://www.w3.org/2000/svg">
<path d="M99.7337 19.0021V19.7837H93.7329V11.2349H99.5517V12.0164H94.6302V15.0583H99.0184V15.8273H94.6302V19.0021H99.7337Z" fill="#5D6D7E"/>
<path d="M110.342 20.5041C110.094 20.8141 109.78 21.0632 109.422 21.2325C109.064 21.4018 108.673 21.487 108.278 21.4816C107.285 21.4816 106.459 21.0288 105.344 19.8645C102.859 19.7908 101.041 17.9582 101.041 15.5164C101.041 13.0262 102.932 11.1702 105.501 11.1702C108.07 11.1702 109.955 13.0064 109.955 15.5093C109.955 17.6959 108.512 19.3686 106.452 19.7711C107.094 20.4556 107.688 20.7611 108.294 20.7611C108.603 20.7622 108.908 20.6924 109.187 20.557C109.465 20.4216 109.709 20.2241 109.9 19.9795L110.342 20.5041ZM105.506 19.0452C107.542 19.0452 109.058 17.5306 109.058 15.5039C109.058 13.4772 107.542 11.9625 105.506 11.9625C103.471 11.9625 101.93 13.4754 101.93 15.5093C101.93 17.5431 103.462 19.0452 105.506 19.0452Z" fill="#5D6D7E"/>
<path d="M111.894 16.1327V11.2349H112.786V16.095C112.786 18.1235 113.731 19.0506 115.381 19.0506C117.031 19.0506 117.987 18.1235 117.987 16.095V11.2438H118.86V16.1327C118.86 18.5871 117.55 19.8573 115.381 19.8573C113.212 19.8573 111.894 18.5871 111.894 16.1327Z" fill="#5D6D7E"/>
<path d="M121.569 11.2349H122.461V19.7837H121.569V11.2349Z" fill="#5D6D7E"/>
<path d="M131.875 14.1671C131.875 15.9854 130.565 17.085 128.407 17.085H126.129V19.7801H125.237V11.2349H128.412C130.565 11.2349 131.875 12.3345 131.875 14.1671ZM130.983 14.1671C130.983 12.798 130.091 12.011 128.389 12.011H126.129V16.2908H128.384C130.08 16.2908 130.977 15.5093 130.977 14.1671H130.983Z" fill="#5D6D7E"/>
<path d="M139.816 19.0021V19.7837H133.815V11.2349H139.634V12.0164H134.713V15.0583H139.101V15.8273H134.713V19.0021H139.816Z" fill="#5D6D7E"/>
<path d="M150.733 11.2349V19.7837H149.873V12.9453L146.539 18.6949H146.115L142.786 12.9813V19.7837H141.927V11.2349H142.665L146.35 17.5737L150 11.2349H150.733Z" fill="#5D6D7E"/>
<path d="M159.506 19.0021V19.7837H153.503V11.2349H159.324V12.0164H154.401V15.0583H158.791V15.8273H154.401V19.0021H159.506Z" fill="#5D6D7E"/>
<path d="M168.707 11.2349V19.7837H167.967L162.506 12.8483V19.7837H161.615V11.2349H162.355L167.822 18.172V11.2349H168.707Z" fill="#5D6D7E"/>
<path d="M173.12 12.0164H170.138V11.2349H177V12.0164H174.018V19.7837H173.126L173.12 12.0164Z" fill="#5D6D7E"/>
<path d="M99.8548 30.6234V31.9547H93.4901V23.4077H99.6853V24.7373H95.067V26.9598H99.1698V28.2679H95.067V30.6234H99.8548Z" fill="#5D6D7E"/>
<path d="M101.614 23.4077H103.189V30.6126H107.627V31.9547H101.614V23.4077Z" fill="#5D6D7E"/>
<path d="M117.732 29.9765H113.483L112.647 31.9529H111.022L114.841 23.4059H116.393L120.23 31.9547H118.582L117.732 29.9765ZM117.197 28.7314L115.592 24.9942L114.004 28.7314H117.197Z" fill="#5D6D7E"/>
<path d="M128.844 29.6352C128.844 31.0995 127.704 31.9547 125.522 31.9547H121.3V23.4077H125.276C127.313 23.4077 128.403 24.2737 128.403 25.6303C128.416 26.0151 128.32 26.3956 128.127 26.728C127.934 27.0604 127.652 27.3314 127.313 27.5096C127.77 27.6369 128.17 27.9166 128.448 28.3027C128.726 28.6888 128.865 29.1586 128.844 29.6352ZM122.879 24.6528V27.0101H125.11C126.2 27.0101 126.819 26.6185 126.819 25.8369C126.819 25.0553 126.2 24.6528 125.11 24.6528H122.879ZM127.256 29.4753C127.256 28.6218 126.612 28.2427 125.424 28.2427H122.879V30.7096H125.424C126.612 30.7096 127.256 30.3305 127.256 29.4753Z" fill="#5D6D7E"/>
<path d="M138.068 29.6352C138.068 31.0995 136.928 31.9547 134.747 31.9547H130.53V23.4077H134.5C136.537 23.4077 137.627 24.2737 137.627 25.6303C137.64 26.0151 137.544 26.3956 137.351 26.728C137.158 27.0604 136.876 27.3314 136.537 27.5096C136.994 27.6367 137.394 27.9162 137.672 28.3024C137.95 28.6886 138.09 29.1586 138.068 29.6352ZM132.103 24.6528V27.0101H134.334C135.424 27.0101 136.043 26.6185 136.043 25.8369C136.043 25.0553 135.424 24.6528 134.334 24.6528H132.103ZM136.48 29.4753C136.48 28.6218 135.838 28.2427 134.65 28.2427H132.105V30.7096H134.652C135.84 30.7096 136.482 30.3305 136.482 29.4753H136.48Z" fill="#5D6D7E"/>
<path d="M145.259 29.9765H141.017L140.18 31.9529H138.555L142.374 23.4059H143.926L147.756 31.9529H146.108L145.259 29.9765ZM144.738 28.7314L143.132 24.9942L141.545 28.7314H144.738Z" fill="#5D6D7E"/>
<path d="M148.122 31.0511L148.657 29.8185C149.466 30.4263 150.448 30.7558 151.458 30.7582C152.779 30.7582 153.338 30.2821 153.338 29.6478C153.338 27.8026 148.295 29.0118 148.295 25.837C148.295 24.4571 149.385 23.2856 151.713 23.2856C152.731 23.2856 153.798 23.5534 154.538 24.0421L154.041 25.2764C153.332 24.8496 152.525 24.6179 151.7 24.6044C150.391 24.6044 149.857 25.1165 149.857 25.7633C149.857 27.5834 154.89 26.3994 154.89 29.5364C154.89 30.9056 153.785 32.077 151.458 32.077C150.146 32.077 148.825 31.662 148.122 31.0511Z" fill="#5D6D7E"/>
<path d="M155.748 31.0511L156.293 29.8185C157.102 30.4269 158.084 30.7564 159.094 30.7582C160.414 30.7582 160.972 30.2821 160.972 29.6478C160.972 27.8026 155.93 29.0118 155.93 25.837C155.93 24.4571 157.019 23.2856 159.347 23.2856C160.366 23.2856 161.433 23.5534 162.173 24.0421L161.675 25.2764C160.967 24.8496 160.16 24.6179 159.335 24.6044C158.026 24.6044 157.492 25.1165 157.492 25.7633C157.492 27.5834 162.524 26.3994 162.524 29.5364C162.524 30.9056 161.42 32.077 159.094 32.077C157.772 32.077 156.45 31.662 155.748 31.0511Z" fill="#5D6D7E"/>
<path d="M164.089 23.4077H165.664V31.9547H164.089V23.4077Z" fill="#5D6D7E"/>
<path d="M84.8441 29.504H50.311L30.8673 5.28235H65.4004L84.8441 29.504Z" fill="#5D6D7E"/>
<path d="M34.7561 11.1918L20.0556 29.504H10.4961L29.9398 5.28235H30.0129L34.7561 11.1918Z" fill="#5D6D7E"/>
<path d="M37.9135 19.3741H35.7158V21.5877H37.9135V19.3741Z" fill="#5D6D7E"/>
<path d="M35.0522 19.3741H32.8545V21.5877H35.0522V19.3741Z" fill="#5D6D7E"/>
<path d="M37.9135 22.1609H35.7158V24.3744H37.9135V22.1609Z" fill="#5D6D7E"/>
<path d="M35.0522 22.1609H32.8545V24.3744H35.0522V22.1609Z" fill="#5D6D7E"/>
<path d="M64.4478 0H59.5209V4.43432H64.4478V0Z" fill="#5D6D7E"/>
<path d="M58.2633 41.003C59.8403 40.2713 61.5048 39.7483 63.2152 39.4471C66.6568 38.8265 70.1899 38.9489 73.581 39.8064C75.2667 40.2252 76.8916 40.8617 78.4152 41.7002C76.7098 41.4037 75.0437 41.1054 73.3741 40.8934C71.7044 40.6814 70.0383 40.5341 68.3687 40.4802C66.699 40.4263 65.0258 40.4424 63.3472 40.5431C61.6686 40.6437 59.9847 40.8198 58.2633 41.003Z" fill="#5D6D7E"/>
<path d="M20.0307 37.5282C18.5887 37.7519 17.1224 37.7664 15.6763 37.5714C14.2238 37.3832 12.7979 37.0256 11.4273 36.5059C10.0549 35.9878 8.74787 35.3088 7.53317 34.4828C6.31832 33.6689 5.22766 32.6811 4.29553 31.5505C5.58702 32.2279 6.825 32.9053 8.08973 33.5126C9.35446 34.1199 10.6281 34.675 11.925 35.1727C13.2218 35.6704 14.5454 36.0963 15.894 36.4736C17.2425 36.8509 18.6179 37.1779 20.0307 37.5282Z" fill="#5D6D7E"/>
<path d="M4.2812 20.8043C4.22203 20.875 4.15763 20.9411 4.08855 21.002C4.02036 21.0647 3.94628 21.1207 3.86736 21.1691H3.8959C3.73249 20.7615 3.64365 20.3274 3.63368 19.888C3.6243 19.4652 3.69015 19.0441 3.82811 18.6447C3.96612 18.2653 4.17097 17.9141 4.43283 17.6079C4.46494 17.5702 4.49526 17.5325 4.52737 17.4965L4.63797 17.3923L4.6897 17.342L4.745 17.2917L4.85738 17.2001C4.92937 17.1351 5.00566 17.075 5.08571 17.0204C5.16598 16.9665 5.24803 16.918 5.33009 16.8731L4.48634 16.6736C4.70143 16.9533 4.86459 17.2698 4.96797 17.6079C5.07659 17.9564 5.12604 18.3209 5.11425 18.686C5.10092 19.0672 5.02309 19.4433 4.88414 19.7982C4.73954 20.1647 4.53582 20.5047 4.2812 20.8043ZM4.32758 20.8528C4.64624 20.5933 4.92148 20.2839 5.14279 19.9365C5.37265 19.5788 5.54428 19.1863 5.65118 18.774C5.76257 18.3476 5.80711 17.9063 5.78318 17.466C5.75706 17.0083 5.66079 16.5573 5.49777 16.1292L5.26231 15.495L4.65402 15.9298C4.55591 16.016 4.46315 16.1095 4.37396 16.1957C4.28538 16.2879 4.20143 16.3844 4.12244 16.485L4.00649 16.6359C3.98664 16.6606 3.96818 16.6864 3.9512 16.7132L3.89947 16.7922L3.796 16.9503C3.76389 17.0042 3.73535 17.0599 3.70503 17.1156C3.46961 17.5505 3.31429 18.0247 3.24659 18.5153C3.18591 18.9895 3.21008 19.4709 3.31794 19.9365C3.42008 20.3846 3.60134 20.8106 3.85309 21.1942L3.86736 21.214L3.88163 21.2014C3.95298 21.1403 4.02612 21.0846 4.09925 21.0217L4.32758 20.8528Z" fill="#5D6D7E"/>
<path d="M4.61825 27.2634C4.5176 27.2368 4.4187 27.2037 4.32214 27.1646C4.22431 27.1261 4.13049 27.078 4.04208 27.0209V27.0532C4.37345 26.6802 4.76935 26.371 5.21048 26.1405C5.63389 25.9182 6.09384 25.7751 6.56798 25.7183C7.02313 25.6661 7.48395 25.6989 7.92725 25.8153L8.08958 25.8566L8.24655 25.9141L8.32504 25.9411C8.35131 25.9494 8.37694 25.9596 8.40175 25.9716L8.55337 26.0399C8.6533 26.0841 8.75041 26.1345 8.84414 26.1908C8.93819 26.2458 9.02929 26.3058 9.11706 26.3705L8.89408 25.402C8.7221 25.7634 8.48637 26.0903 8.19839 26.3669C7.89824 26.6557 7.55136 26.8909 7.17269 27.0622C6.77751 27.2398 6.3553 27.3485 5.92401 27.3838C5.48516 27.4155 5.04412 27.3748 4.61825 27.2634ZM4.59328 27.3335C5.01619 27.5316 5.46787 27.6602 5.93115 27.7144C6.40698 27.7701 6.88854 27.75 7.35821 27.6551C7.84605 27.5544 8.31542 27.378 8.74959 27.1323C9.20106 26.8766 9.61028 26.5517 9.96259 26.1692L10.487 25.6069L9.73962 25.2008C9.60583 25.1433 9.46847 25.0912 9.33112 25.0463C9.19356 25.0008 9.05361 24.963 8.91192 24.9331L8.70143 24.8882C8.66575 24.8792 8.63008 24.8756 8.5944 24.8702L8.48737 24.8576L8.2751 24.8307C8.20553 24.8307 8.13239 24.8307 8.06282 24.8199C7.50635 24.7963 6.95026 24.8748 6.4217 25.0517C5.9098 25.2255 5.43352 25.4915 5.01605 25.8368C4.61308 26.1696 4.2734 26.5732 4.01354 27.0281L3.99927 27.0514L4.02067 27.0604C4.117 27.1035 4.21154 27.1503 4.30609 27.197C4.40063 27.2437 4.49695 27.2904 4.59328 27.3335Z" fill="#5D6D7E"/>
<path d="M5.02853 25.0194C4.9028 25.0779 4.77351 25.1283 4.64144 25.1703C4.57584 25.1918 4.50915 25.2098 4.44165 25.2242C4.37412 25.2407 4.3056 25.2527 4.23651 25.2601L4.27219 25.2871C4.29033 24.6186 4.4256 23.9587 4.67177 23.3376C4.91054 22.7418 5.25374 22.1941 5.68498 21.7206C6.09889 21.2683 6.59397 20.8988 7.14415 20.6318C7.40958 20.5027 7.68676 20.3999 7.97184 20.3245C8.25092 20.2499 8.53644 20.2024 8.82451 20.1826L7.77562 19.3813C7.9091 19.9023 7.95076 20.443 7.8987 20.9785C7.87142 21.2536 7.8213 21.5258 7.74886 21.7925C7.67596 22.0647 7.57926 22.3298 7.45988 22.5848C7.21646 23.1097 6.88451 23.5882 6.47878 23.9988C6.05616 24.4192 5.56578 24.7643 5.02853 25.0194ZM5.06242 25.1128C5.66667 24.954 6.24012 24.694 6.75884 24.3438C7.02544 24.1673 7.27667 23.9684 7.50983 23.7491C7.5687 23.6934 7.62578 23.6359 7.68821 23.5694C7.75065 23.5029 7.79881 23.4508 7.85589 23.3897L8.01644 23.2101L8.17163 23.0196C8.37075 22.7564 8.54965 22.4783 8.70678 22.1877C8.86936 21.8927 9.00834 21.5851 9.12241 21.2678C9.35867 20.6136 9.49636 19.9274 9.5309 19.2321L9.58799 18.2134L8.48202 18.4308C8.10781 18.5413 7.7447 18.6869 7.39745 18.8656C7.05326 19.0431 6.72655 19.253 6.4217 19.4926C5.2479 20.4082 4.45536 21.7318 4.19905 23.2047C4.08063 23.8958 4.08365 24.6024 4.20797 25.2925V25.3284L4.23651 25.3194C4.30251 25.2997 4.37208 25.2835 4.43808 25.2655L4.64144 25.217C4.7895 25.1829 4.92685 25.1541 5.06242 25.1128Z" fill="#5D6D7E"/>
<path d="M3.43915 26.2662C3.42962 26.3709 3.41293 26.4747 3.38921 26.5771C3.36771 26.6806 3.33604 26.7817 3.29466 26.8789L3.32499 26.8663C2.90549 26.5982 2.53848 26.2547 2.24221 25.853C1.95454 25.4684 1.73875 25.0343 1.60538 24.5719C1.48199 24.1275 1.43968 23.6642 1.48051 23.2046C1.48051 23.1489 1.48051 23.0932 1.49657 23.0375L1.52511 22.8722L1.53938 22.7896C1.54362 22.7623 1.54958 22.7352 1.55722 22.7087L1.60003 22.547C1.62686 22.4402 1.66022 22.3352 1.69992 22.2326C1.73738 22.1302 1.78198 22.0313 1.82836 21.9343L0.916825 22.3116C1.29845 22.4265 1.65667 22.609 1.97463 22.8506C2.30514 23.1001 2.59158 23.4038 2.82195 23.749C3.05879 24.111 3.23309 24.5107 3.33747 24.9313C3.44431 25.3675 3.47867 25.8186 3.43915 26.2662ZM3.51229 26.2788C3.63857 25.8268 3.69099 25.3571 3.66748 24.8881C3.64617 24.4036 3.54801 23.9256 3.37672 23.4723C3.20018 23.0037 2.95157 22.5659 2.64 22.1751C2.31615 21.7676 1.93164 21.413 1.50014 21.124L0.865094 20.6946L0.586817 21.5031C0.552925 21.6468 0.524384 21.7906 0.502978 21.9343C0.479009 22.0787 0.464706 22.2246 0.460166 22.3709L0.449463 22.5865C0.449463 22.6225 0.449463 22.6584 0.449463 22.6943V22.8039V23.0177C0.449463 23.0896 0.465517 23.1615 0.472653 23.2316C0.539471 23.791 0.706911 24.3335 0.966772 24.8324C1.22125 25.3124 1.55896 25.7426 1.96393 26.1027C2.35555 26.4485 2.80569 26.7205 3.29288 26.9059L3.31964 26.9148V26.8933C3.34639 26.7909 3.37672 26.6884 3.40704 26.586C3.43737 26.4836 3.48375 26.383 3.51229 26.2788Z" fill="#5D6D7E"/>
<path d="M2.83444 36.4412C2.70957 35.9669 2.59541 35.4907 2.50087 35.0038C2.45984 34.8062 2.42416 34.6085 2.39027 34.4091C2.2581 33.6248 2.1889 32.8311 2.18335 32.0356C2.18858 31.2389 2.28192 30.4452 2.46162 29.6693C2.65322 28.8918 2.92961 28.138 3.28575 27.4216C2.89795 28.1264 2.58923 28.8724 2.3653 29.646C2.15017 30.4244 2.0233 31.2248 1.98713 32.032C1.9562 32.8411 1.9932 33.6513 2.09772 34.454C2.11021 34.56 2.12448 34.6642 2.13875 34.7684C2.19583 35.1781 2.2654 35.5848 2.34746 35.9884L2.83444 36.4412Z" fill="#5D6D7E"/>
<path d="M83.433 40.3474L83.3563 40.5378C81.5987 40.0587 79.8434 39.6287 78.0905 39.2478C77.6535 39.1472 77.2111 39.0681 76.7722 38.9765L76.1158 38.8435L75.454 38.7285C74.5781 38.5488 73.6951 38.4321 72.8175 38.2991L71.4957 38.1194C71.0586 38.0565 70.6145 38.0278 70.1757 37.9793L69.5156 37.9092C69.2962 37.8858 69.075 37.8751 68.8556 37.8571C68.415 37.8266 67.9762 37.7906 67.5374 37.7637C65.7762 37.6702 64.0215 37.6499 62.2733 37.7026C60.527 37.7798 58.7842 37.8823 57.061 38.1374C56.6311 38.2003 56.1976 38.2488 55.7695 38.3171C55.3414 38.3853 54.9133 38.4482 54.4976 38.5327C53.6539 38.6854 52.8458 38.8794 52.0359 39.1094C51.2261 39.3394 50.3984 39.6053 49.5279 39.8874C48.6574 40.1695 47.7583 40.4498 46.8521 40.6923C45.0434 41.1792 43.231 41.5907 41.4204 41.9303L40.0629 42.1818L38.7233 42.4172C37.8314 42.5789 36.9287 42.719 36.0315 42.8646C34.2245 43.1413 32.4157 43.4216 30.5748 43.6066C29.6614 43.7162 28.7321 43.7863 27.8098 43.8636C27.346 43.8941 26.8787 43.9103 26.4149 43.9354L25.7174 43.9678L25.0146 43.9803C24.5472 43.9803 24.0798 43.9983 23.6107 43.9965L22.2015 43.9516C21.7341 43.9516 21.2614 43.8959 20.7923 43.8636C20.3231 43.8312 19.854 43.8025 19.383 43.7324L17.9792 43.5527C17.5118 43.4755 17.048 43.373 16.5824 43.2922C16.3505 43.2455 16.1186 43.2077 15.8867 43.1538L15.1982 42.9742L14.5114 42.7945C14.2813 42.7352 14.053 42.6795 13.8282 42.6005L12.4868 42.1603C12.2614 42.09 12.0399 42.0078 11.8232 41.9141L11.1667 41.6464L10.5121 41.3805C10.2927 41.296 10.0857 41.1792 9.87347 41.0804C9.44892 40.878 9.02675 40.6714 8.60695 40.4606C5.89774 39.0285 3.4315 37.1721 1.30041 34.9608C1.19516 34.853 1.0917 34.7416 0.990023 34.632C0.649907 34.2654 0.319899 33.8911 0 33.509L0.139138 33.3617C0.533364 33.6564 0.931156 33.9456 1.33252 34.2259C1.44847 34.3068 1.56441 34.3876 1.68928 34.4667C2.6579 35.1297 3.65149 35.7477 4.66113 36.3119C6.20681 37.1746 7.81717 37.9142 9.47746 38.5237C10.3141 38.786 11.1221 39.113 11.9748 39.3107L12.6045 39.4795C12.8132 39.537 13.0219 39.5963 13.2342 39.6359L14.5061 39.9018C14.7148 39.9521 14.9306 39.9808 15.1447 40.0114L15.7868 40.1048L16.4255 40.2036C16.6395 40.2324 16.8554 40.2467 17.0694 40.2701C17.5011 40.3096 17.9292 40.3581 18.3591 40.3905L19.6542 40.4444C21.3911 40.4984 23.1297 40.451 24.8612 40.3024C26.6022 40.1605 28.3485 39.9431 30.0985 39.679C31.8484 39.4149 33.6073 39.1058 35.3679 38.7806L37.9955 38.2973L39.3244 38.0529L40.632 37.7996C42.3712 37.4403 44.0961 37.0953 45.7819 36.6497C46.6274 36.4233 47.4622 36.1951 48.322 35.94C49.1818 35.6849 50.0773 35.4171 51.0192 35.1854C51.9572 34.9541 52.907 34.7742 53.8644 34.6464C54.8098 34.508 55.7427 34.4146 56.681 34.3571C57.6193 34.2996 58.554 34.2619 59.4906 34.2331C59.9579 34.2097 60.4271 34.2331 60.8944 34.2421L61.5955 34.2565C61.8291 34.2565 62.0628 34.2672 62.2965 34.2852C69.7092 34.6533 76.9397 36.7271 83.433 40.3474Z" fill="#5D6D7E"/>
</svg>
