<svg style="position: absolute; width: 0; height: 0; overflow: hidden;" version="1.1" xmlns="http://www.w3.org/2000/svg" xmlns:xlink="http://www.w3.org/1999/xlink">
<defs>
<symbol id="icon-product" viewBox="0 0 73 73">
<title>icon-product</title>
<rect width="73" height="73" rx="8" fill="#F3D1FB"/>
<path fill-rule="evenodd" clip-rule="evenodd" d="M39.6374 24.95C39.3399 29.122 38.3234 31.8595 36.586 33.1625C36.586 33.1625 37.8124 21.3 34.2956 17.65C34.2956 17.65 34.2956 24.8204 31.038 30.686C29.5105 33.4363 27.7786 36.1592 27.7786 39.811C27.7786 45.025 34.1077 46.85 36.909 46.85C40.1904 46.85 46.0249 45.025 46.0249 38.6375C46.0249 36.0095 43.8951 31.447 39.6374 24.95Z" fill="#662483"/>
<path opacity="0.3" fill-rule="evenodd" clip-rule="evenodd" d="M32.739 50.5H41.061C41.4438 50.5003 41.8169 50.621 42.1274 50.845C42.4379 51.069 42.6701 51.385 42.7911 51.7483L44.2 55.975H29.6L31.0089 51.7483C31.13 51.3847 31.3624 51.0685 31.6733 50.8445C31.9841 50.6204 32.3576 50.4999 32.7408 50.5H32.739Z" fill="#662483"/>
</symbol>
<symbol id="icon-communityM" viewBox="0 0 73 73">
<title>community</title>
<rect width="73" height="73" rx="8" fill="#D1DDFB"/>
<path opacity="0.3" d="M47.85 40.55C47.131 40.55 46.4191 40.4084 45.7548 40.1332C45.0906 39.8581 44.487 39.4548 43.9786 38.9464C43.4702 38.438 43.0669 37.8344 42.7918 37.1702C42.5166 36.5059 42.375 35.794 42.375 35.075C42.375 34.356 42.5166 33.644 42.7918 32.9798C43.0669 32.3155 43.4702 31.712 43.9786 31.2036C44.487 30.6952 45.0906 30.2919 45.7548 30.0167C46.4191 29.7416 47.131 29.6 47.85 29.6C49.3021 29.6 50.6946 30.1768 51.7214 31.2036C52.7482 32.2303 53.325 33.6229 53.325 35.075C53.325 36.527 52.7482 37.9196 51.7214 38.9464C50.6946 39.9731 49.3021 40.55 47.85 40.55ZM31.425 35.075C29.4889 35.075 27.6321 34.3059 26.2631 32.9369C24.8941 31.5678 24.125 29.7111 24.125 27.775C24.125 25.8389 24.8941 23.9821 26.2631 22.6131C27.6321 21.2441 29.4889 20.475 31.425 20.475C33.3611 20.475 35.2179 21.2441 36.5869 22.6131C37.9559 23.9821 38.725 25.8389 38.725 27.775C38.725 29.7111 37.9559 31.5678 36.5869 32.9369C35.2179 34.3059 33.3611 35.075 31.425 35.075Z" fill="#1D71B8"/>
<path d="M47.1218 42.375C53.3396 42.4443 58.4149 45.587 58.7963 52.23C58.8127 52.4983 58.7963 53.325 57.8072 53.325H50.77C50.77 49.2187 49.4122 45.4264 47.1218 42.375ZM15.0018 51.865C15.7081 43.1524 22.7745 38.725 31.3939 38.725C40.132 38.725 47.3116 42.9097 47.8463 51.865C47.8682 52.2209 47.8463 53.325 46.4757 53.325H16.3267C15.8705 53.325 14.9635 52.3395 15.0018 51.865Z" fill="#1D71B8"/>
</symbol>
<symbol id="icon-marketing" viewBox="0 0 73 73">
<title>marketing</title>
<rect width="73" height="73" rx="8" fill="#FBDCD1"/>
<path fill-rule="evenodd" clip-rule="evenodd" d="M43.7999 43.1284V36.5C43.7999 35.0479 43.2231 33.6553 42.1963 32.6285C41.1696 31.6018 39.777 31.025 38.3249 31.025H25.8456V24.6849C25.8456 23.4623 26.3313 22.2897 27.1958 21.4252C28.0603 20.5606 29.2329 20.075 30.4555 20.075H51.9723C53.1949 20.075 54.3675 20.5606 55.232 21.4252C56.0965 22.2897 56.5822 23.4623 56.5822 24.6849V38.5184L56.6133 47.0594C56.6143 47.2404 56.5615 47.4177 56.4615 47.5686C56.3616 47.7195 56.219 47.8373 56.0519 47.9069C55.8848 47.9766 55.7007 47.995 55.5232 47.9598C55.3456 47.9245 55.1825 47.8373 55.0547 47.7091L50.474 43.1284H43.7999Z" fill="#E94E1B"/>
<path opacity="0.3" fill-rule="evenodd" clip-rule="evenodd" d="M18.2227 47.4499V38.3249C18.2227 37.3569 18.6072 36.4285 19.2917 35.744C19.9762 35.0595 20.9046 34.6749 21.8727 34.6749H36.4727C37.4407 34.6749 38.3691 35.0595 39.0536 35.744C39.7381 36.4285 40.1227 37.3569 40.1227 38.3249V47.4499C40.1227 48.418 39.7381 49.3464 39.0536 50.0309C38.3691 50.7154 37.4407 51.0999 36.4727 51.0999H22.0844L19.8141 53.2717C19.6851 53.3953 19.5226 53.4784 19.3468 53.5105C19.1711 53.5427 18.9897 53.5226 18.8253 53.4526C18.6609 53.3826 18.5206 53.2659 18.4219 53.117C18.3232 52.968 18.2704 52.7934 18.2701 52.6147V48.0412C18.2384 47.8457 18.2225 47.648 18.2227 47.4499ZM26.4625 40.1499C26.2205 40.1499 25.9884 40.2461 25.8173 40.4172C25.6462 40.5883 25.55 40.8204 25.55 41.0624C25.55 41.3044 25.6462 41.5365 25.8173 41.7077C25.9884 41.8788 26.2205 41.9749 26.4625 41.9749H35.5875C35.8295 41.9749 36.0616 41.8788 36.2328 41.7077C36.4039 41.5365 36.5 41.3044 36.5 41.0624C36.5 40.8204 36.4039 40.5883 36.2328 40.4172C36.0616 40.2461 35.8295 40.1499 35.5875 40.1499H26.4625ZM31.9375 43.7999C31.6955 43.7999 31.4634 43.8961 31.2923 44.0672C31.1212 44.2383 31.025 44.4704 31.025 44.7124C31.025 44.9544 31.1212 45.1865 31.2923 45.3577C31.4634 45.5288 31.6955 45.6249 31.9375 45.6249H35.5875C35.8295 45.6249 36.0616 45.5288 36.2328 45.3577C36.4039 45.1865 36.5 44.9544 36.5 44.7124C36.5 44.4704 36.4039 44.2383 36.2328 44.0672C36.0616 43.8961 35.8295 43.7999 35.5875 43.7999H31.9375Z" fill="#E94E1B"/>
</symbol>
<symbol id="icon-developement" viewBox="0 0 73 73">
<title>dev</title>
<rect width="73" height="73" rx="8" fill="#D1D5FB"/>
<path d="M46.5213 29.8501C46.3492 29.6771 46.2135 29.4715 46.1222 29.2452C46.031 29.0189 45.986 28.7766 45.99 28.5327C45.994 28.2887 46.0469 28.0481 46.1455 27.8249C46.2441 27.6017 46.3865 27.4006 46.5641 27.2334C46.7418 27.0662 46.9512 26.9364 47.18 26.8515C47.4087 26.7666 47.6522 26.7285 47.8959 26.7394C48.1397 26.7502 48.3788 26.8098 48.5991 26.9147C48.8194 27.0195 49.0164 27.1675 49.1785 27.3498L56.4785 35.1061C56.7968 35.4445 56.9739 35.8916 56.9739 36.3562C56.9739 36.8208 56.7968 37.2678 56.4785 37.6063L49.1785 45.3626C48.8433 45.6993 48.39 45.892 47.915 45.8998C47.4399 45.9076 46.9805 45.7298 46.6345 45.4042C46.2885 45.0786 46.083 44.6309 46.0619 44.1562C46.0408 43.6815 46.2056 43.2174 46.5213 42.8623L52.6442 36.3562L46.5213 29.8501ZM27.2785 29.8501L21.1557 36.3562L27.2785 42.8623C27.5943 43.2174 27.7591 43.6815 27.738 44.1562C27.7168 44.6309 27.5114 45.0786 27.1654 45.4042C26.8193 45.7298 26.36 45.9076 25.8849 45.8998C25.4098 45.892 24.9565 45.6993 24.6213 45.3626L17.3213 37.6063C17.0031 37.2678 16.8259 36.8208 16.8259 36.3562C16.8259 35.8916 17.0031 35.4445 17.3213 35.1061L24.6213 27.3498C24.9565 27.0131 25.4098 26.8203 25.8849 26.8126C26.36 26.8048 26.8193 26.9826 27.1654 27.3082C27.5114 27.6338 27.7168 28.0815 27.738 28.5562C27.7591 29.0308 27.5943 29.495 27.2785 29.8501Z" fill="#334E68"/>
<path opacity="0.3" d="M41.9692 24.0327C42.23 23.0591 41.6523 22.0584 40.6787 21.7975C39.7051 21.5367 38.7044 22.1144 38.4435 23.088L31.8307 47.7674C31.5699 48.741 32.1476 49.7417 33.1212 50.0026C34.0948 50.2634 35.0955 49.6857 35.3564 48.7121L41.9692 24.0327Z" fill="#334E68"/>
</symbol>
<symbol id="partner_1"  viewBox="0 0 140 44">
<title>trophy</title>
<g opacity="0.8">
<path d="M76.822 13.9143C78.2683 14.6801 79.4787 15.8211 80.3247 17.216C81.1747 18.6159 81.5997 20.1862 81.5997 21.9269C81.5997 23.6845 81.1747 25.2715 80.3247 26.6876C79.4819 28.0995 78.2719 29.2596 76.822 30.0459C75.3361 30.859 73.6751 31.2673 71.839 31.271C70.0029 31.2747 68.3415 30.8682 66.8549 30.0514C65.4017 29.2716 64.1905 28.1119 63.3522 26.6976C62.4965 25.2518 62.0556 23.6008 62.0772 21.9235C62.0772 20.1829 62.5022 18.6126 63.3522 17.2127C64.1979 15.8175 65.4084 14.6765 66.8549 13.911C68.3423 13.1097 70.0036 12.7087 71.839 12.708C73.6744 12.7073 75.3354 13.1094 76.822 13.9143ZM69.4038 17.3701C68.6378 17.8329 68.0107 18.4914 67.5878 19.2771C67.146 20.1055 66.9162 21.0292 66.9185 21.9668C66.9208 22.9044 67.1553 23.827 67.6012 24.6532C68.0307 25.4372 68.6556 26.0984 69.4161 26.5734C70.1563 27.0368 71.0145 27.2799 71.8892 27.2741C72.7584 27.2792 73.6105 27.0347 74.3433 26.5701C75.0931 26.0975 75.7023 25.4346 76.1081 24.6498C76.5313 23.8162 76.7518 22.8955 76.7518 21.9618C76.7518 21.0281 76.5313 20.1074 76.1081 19.2737C75.7044 18.491 75.0944 17.8319 74.3433 17.3668C73.6077 16.9099 72.7566 16.6703 71.8892 16.6761C71.0118 16.6723 70.1509 16.9128 69.4038 17.3701Z" fill="#34495E"/>
<path d="M95.8225 13.8754C97.2796 14.6119 98.4948 15.7466 99.3252 17.1461C100.161 18.5505 100.579 20.1611 100.578 21.9778C100.577 23.7946 100.156 25.4097 99.3129 26.8229C98.4666 28.2365 97.2269 29.3766 95.7433 30.1058C94.2061 30.8826 92.4432 31.271 90.4546 31.271H82.5947V12.7113H90.6398C92.5934 12.7113 94.321 13.0993 95.8225 13.8754ZM93.2791 26.6898C94.0166 26.2385 94.6082 25.5863 94.9836 24.8106C95.4054 23.9445 95.6163 22.992 95.5994 22.03C95.5994 20.9715 95.3819 20.0361 94.9468 19.2238C94.536 18.4381 93.9119 17.7824 93.1453 17.3313C92.3534 16.8737 91.4507 16.6402 90.535 16.6561H87.4695V27.3517H90.7726C91.6532 27.3679 92.5207 27.1386 93.2769 26.6898H93.2791Z" fill="#34495E"/>
<path d="M111.551 12.7091H106.541L98.5264 31.2655H103.532L104.839 27.9826H112.91L114.19 31.2655H114.548L117.954 27.8795L111.551 12.7091ZM106.308 24.2806L108.916 17.6639L111.47 24.2806H106.308Z" fill="#34495E"/>
<path d="M52.5205 12.7102V16.2503L47.7561 20.9856V12.7102H52.5205Z" fill="#34495E"/>
<path d="M50.8215 26.3162L52.5205 28.0047V31.2909H47.7561V23.265L49.9816 25.4758L50.8215 26.3162Z" fill="#34495E"/>
<path d="M55.9407 22.1275L65.1593 31.2899H58.416L53.4096 26.3151L52.5685 25.4747L49.1974 22.1275L52.5685 18.777L53.4096 17.9366L58.6703 12.7091H65.4136L55.9407 22.1275Z" fill="#34495E"/>
<path d="M140 12.7091L131.803 20.8592L129.708 18.777L128.867 17.9366L128.432 17.5042L133.257 12.7091H140Z" fill="#34495E"/>
<path d="M139.75 31.2898H133.006L128.432 26.7475L128.867 26.3151L129.708 25.4747L131.803 23.3959L139.75 31.2898Z" fill="#34495E"/>
<path d="M130.492 22.1275L127.121 25.4747L126.28 26.3151L121.27 31.2899H114.526L117.954 27.8828L123.749 22.1275L114.276 12.7091H121.02L126.28 17.9366L127.121 18.777L130.492 22.1275Z" fill="#34495E"/>
<path d="M0.147217 41.0187L3.15687 43.9911L0.157256 44L0.147217 41.0187Z" fill="#34495E"/>
<path d="M12.2482 43.9612L7.57759 43.9778L1.45343 37.9276L0.132666 36.626L0.125973 34.5871L0.118164 31.9839L1.43335 33.28L3.77927 35.6005L12.2482 43.9612Z" fill="#34495E"/>
<path d="M21.3386 43.9324L16.668 43.9468L5.98471 33.3953L3.63544 31.0781L1.41892 28.8862L0.103735 27.5901L0.0981575 25.5523L0.0892334 22.9491L1.40219 24.2452L3.74588 26.5601L5.96463 28.7487L8.31055 31.0692L21.3386 43.9324Z" fill="#34495E"/>
<path d="M30.4288 43.9046L25.7582 43.919L10.5147 28.8639L8.16547 26.5456L5.95006 24.3548L3.60637 22.0421L1.39097 19.8513L0.0757809 18.5552L0.0702034 16.5174L0.0612793 13.9142L1.37312 15.2103L3.71681 17.5252L5.93333 19.7127L8.27702 22.0288L10.4924 24.2163L12.8417 26.5379L30.4288 43.9046Z" fill="#34495E"/>
<path d="M39.5281 43.8758L34.8497 43.8902L15.046 24.3327L12.6967 22.0144L10.4813 19.8236L8.13765 17.5108L5.9189 15.32L3.57856 13.0073L1.35981 10.8165L0.0468503 9.52039L0.0412727 7.48148L0.0323486 4.87048L1.35088 6.1721L3.69457 8.48707L5.90998 10.6757L8.25367 12.9906L10.4702 15.1792L12.8139 17.4942L15.0293 19.6817L17.3752 22L39.5281 43.8758Z" fill="#34495E"/>
<path d="M0.0100396 3.10554L2.99961 0.114258L0 0.124236L0.0100396 3.10554Z" fill="#34495E"/>
<path d="M12.0887 0.0876465L3.69452 8.48718L1.35083 6.17221L7.41921 0.10206L12.0887 0.0876465Z" fill="#34495E"/>
<path d="M21.179 0.0565186L8.2536 12.9907L5.90991 10.6757L16.5095 0.0731491L21.179 0.0565186Z" fill="#34495E"/>
<path d="M30.2705 0.0288086L12.8139 17.4942L10.4702 15.1792L25.5999 0.042113L30.2705 0.0288086Z" fill="#34495E"/>
<path d="M39.3686 0L17.3752 22L15.0293 19.6817L34.6902 0.0144131L39.3686 0Z" fill="#34495E"/>
</g>
</symbol>
<symbol id="partner_2" viewBox="0 0 153 20" >
<title>key</title>
<g clip-path="url(#clip0)">
<path d="M122.598 4.30366V15.7024H133.998V19.5H118.794V0.5H133.998V4.30366H122.598Z" fill="#5D6D7E"/>
<path d="M153 0.5V11.9049H147.297V19.5H143.499V11.9049H137.796V0.5H141.6V8.10122H149.196V0.5H153Z" fill="#5D6D7E"/>
<path d="M65.5916 4.30366V15.7024H73.1875V11.9049H69.3895V8.10122H76.9916V19.5H61.7875V0.5H76.9916V4.30366H65.5916Z" fill="#5D6D7E"/>
<path d="M42.7853 0.5V19.5H46.5833V11.9049H54.1853V19.5H58.0077V0.5H42.7853ZM54.1853 8.10122H46.5833V4.30366H54.1853V8.10122Z" fill="#5D6D7E"/>
<path d="M84.5875 4.30366V8.10122H95.9937V11.9049H84.5875V15.7024H95.9937V19.5H80.7896V0.5H95.9937V4.30366H84.5875Z" fill="#5D6D7E"/>
<path d="M114.996 0.5V19.5H111.198L111.192 19.4939L108.78 15.7024L106.356 11.9049L103.932 8.10122L103.596 7.57005V19.5H99.7916V0.5H103.596L106.014 4.30366L108.438 8.10122L110.862 11.9049L111.192 12.4238V0.5H114.996Z" fill="#5D6D7E"/>
<path d="M3.79798 15.7024H11.4V11.9049H7.60207V8.10122H15.2041V19.5H0V0.5H15.2041V4.30366H3.79798V15.7024Z" fill="#5D6D7E"/>
<path d="M22.8001 15.7024H30.4021V11.9049H26.6041V8.10122H34.2062V19.5H19.0021V0.5H34.2062V4.30366H22.8001V15.7024Z" fill="#5D6D7E"/>
<path d="M22.8001 8.1012V11.9049H34.1941V8.1012H22.8001ZM5.70312 11.9049H19.0022V8.1012H7.60212L5.70312 11.9049Z" fill="#5D6D7E"/>
</g>
<defs>
<clipPath id="clip0">
<rect width="153" height="19" fill="white" transform="translate(0 0.5)"/>
</clipPath>
</defs>
</symbol>
<symbol id="partner_3" viewBox="0 0 177 44">
<title>profile-male</title>
<path d="M99.7337 19.0021V19.7837H93.7329V11.2349H99.5517V12.0164H94.6302V15.0583H99.0184V15.8273H94.6302V19.0021H99.7337Z" fill="#5D6D7E"/>
<path d="M110.342 20.5041C110.094 20.8141 109.78 21.0632 109.422 21.2325C109.064 21.4018 108.673 21.487 108.278 21.4816C107.285 21.4816 106.459 21.0288 105.344 19.8645C102.859 19.7908 101.041 17.9582 101.041 15.5164C101.041 13.0262 102.932 11.1702 105.501 11.1702C108.07 11.1702 109.955 13.0064 109.955 15.5093C109.955 17.6959 108.512 19.3686 106.452 19.7711C107.094 20.4556 107.688 20.7611 108.294 20.7611C108.603 20.7622 108.908 20.6924 109.187 20.557C109.465 20.4216 109.709 20.2241 109.9 19.9795L110.342 20.5041ZM105.506 19.0452C107.542 19.0452 109.058 17.5306 109.058 15.5039C109.058 13.4772 107.542 11.9625 105.506 11.9625C103.471 11.9625 101.93 13.4754 101.93 15.5093C101.93 17.5431 103.462 19.0452 105.506 19.0452Z" fill="#5D6D7E"/>
<path d="M111.894 16.1327V11.2349H112.786V16.095C112.786 18.1235 113.731 19.0506 115.381 19.0506C117.031 19.0506 117.987 18.1235 117.987 16.095V11.2438H118.86V16.1327C118.86 18.5871 117.55 19.8573 115.381 19.8573C113.212 19.8573 111.894 18.5871 111.894 16.1327Z" fill="#5D6D7E"/>
<path d="M121.569 11.2349H122.461V19.7837H121.569V11.2349Z" fill="#5D6D7E"/>
<path d="M131.875 14.1671C131.875 15.9854 130.565 17.085 128.407 17.085H126.129V19.7801H125.237V11.2349H128.412C130.565 11.2349 131.875 12.3345 131.875 14.1671ZM130.983 14.1671C130.983 12.798 130.091 12.011 128.389 12.011H126.129V16.2908H128.384C130.08 16.2908 130.977 15.5093 130.977 14.1671H130.983Z" fill="#5D6D7E"/>
<path d="M139.816 19.0021V19.7837H133.815V11.2349H139.634V12.0164H134.713V15.0583H139.101V15.8273H134.713V19.0021H139.816Z" fill="#5D6D7E"/>
<path d="M150.733 11.2349V19.7837H149.873V12.9453L146.539 18.6949H146.115L142.786 12.9813V19.7837H141.927V11.2349H142.665L146.35 17.5737L150 11.2349H150.733Z" fill="#5D6D7E"/>
<path d="M159.506 19.0021V19.7837H153.503V11.2349H159.324V12.0164H154.401V15.0583H158.791V15.8273H154.401V19.0021H159.506Z" fill="#5D6D7E"/>
<path d="M168.707 11.2349V19.7837H167.967L162.506 12.8483V19.7837H161.615V11.2349H162.355L167.822 18.172V11.2349H168.707Z" fill="#5D6D7E"/>
<path d="M173.12 12.0164H170.138V11.2349H177V12.0164H174.018V19.7837H173.126L173.12 12.0164Z" fill="#5D6D7E"/>
<path d="M99.8548 30.6234V31.9547H93.4901V23.4077H99.6853V24.7373H95.067V26.9598H99.1698V28.2679H95.067V30.6234H99.8548Z" fill="#5D6D7E"/>
<path d="M101.614 23.4077H103.189V30.6126H107.627V31.9547H101.614V23.4077Z" fill="#5D6D7E"/>
<path d="M117.732 29.9765H113.483L112.647 31.9529H111.022L114.841 23.4059H116.393L120.23 31.9547H118.582L117.732 29.9765ZM117.197 28.7314L115.592 24.9942L114.004 28.7314H117.197Z" fill="#5D6D7E"/>
<path d="M128.844 29.6352C128.844 31.0995 127.704 31.9547 125.522 31.9547H121.3V23.4077H125.276C127.313 23.4077 128.403 24.2737 128.403 25.6303C128.416 26.0151 128.32 26.3956 128.127 26.728C127.934 27.0604 127.652 27.3314 127.313 27.5096C127.77 27.6369 128.17 27.9166 128.448 28.3027C128.726 28.6888 128.865 29.1586 128.844 29.6352ZM122.879 24.6528V27.0101H125.11C126.2 27.0101 126.819 26.6185 126.819 25.8369C126.819 25.0553 126.2 24.6528 125.11 24.6528H122.879ZM127.256 29.4753C127.256 28.6218 126.612 28.2427 125.424 28.2427H122.879V30.7096H125.424C126.612 30.7096 127.256 30.3305 127.256 29.4753Z" fill="#5D6D7E"/>
<path d="M138.068 29.6352C138.068 31.0995 136.928 31.9547 134.747 31.9547H130.53V23.4077H134.5C136.537 23.4077 137.627 24.2737 137.627 25.6303C137.64 26.0151 137.544 26.3956 137.351 26.728C137.158 27.0604 136.876 27.3314 136.537 27.5096C136.994 27.6367 137.394 27.9162 137.672 28.3024C137.95 28.6886 138.09 29.1586 138.068 29.6352ZM132.103 24.6528V27.0101H134.334C135.424 27.0101 136.043 26.6185 136.043 25.8369C136.043 25.0553 135.424 24.6528 134.334 24.6528H132.103ZM136.48 29.4753C136.48 28.6218 135.838 28.2427 134.65 28.2427H132.105V30.7096H134.652C135.84 30.7096 136.482 30.3305 136.482 29.4753H136.48Z" fill="#5D6D7E"/>
<path d="M145.259 29.9765H141.017L140.18 31.9529H138.555L142.374 23.4059H143.926L147.756 31.9529H146.108L145.259 29.9765ZM144.738 28.7314L143.132 24.9942L141.545 28.7314H144.738Z" fill="#5D6D7E"/>
<path d="M148.122 31.0511L148.657 29.8185C149.466 30.4263 150.448 30.7558 151.458 30.7582C152.779 30.7582 153.338 30.2821 153.338 29.6478C153.338 27.8026 148.295 29.0118 148.295 25.837C148.295 24.4571 149.385 23.2856 151.713 23.2856C152.731 23.2856 153.798 23.5534 154.538 24.0421L154.041 25.2764C153.332 24.8496 152.525 24.6179 151.7 24.6044C150.391 24.6044 149.857 25.1165 149.857 25.7633C149.857 27.5834 154.89 26.3994 154.89 29.5364C154.89 30.9056 153.785 32.077 151.458 32.077C150.146 32.077 148.825 31.662 148.122 31.0511Z" fill="#5D6D7E"/>
<path d="M155.748 31.0511L156.293 29.8185C157.102 30.4269 158.084 30.7564 159.094 30.7582C160.414 30.7582 160.972 30.2821 160.972 29.6478C160.972 27.8026 155.93 29.0118 155.93 25.837C155.93 24.4571 157.019 23.2856 159.347 23.2856C160.366 23.2856 161.433 23.5534 162.173 24.0421L161.675 25.2764C160.967 24.8496 160.16 24.6179 159.335 24.6044C158.026 24.6044 157.492 25.1165 157.492 25.7633C157.492 27.5834 162.524 26.3994 162.524 29.5364C162.524 30.9056 161.42 32.077 159.094 32.077C157.772 32.077 156.45 31.662 155.748 31.0511Z" fill="#5D6D7E"/>
<path d="M164.089 23.4077H165.664V31.9547H164.089V23.4077Z" fill="#5D6D7E"/>
<path d="M84.8441 29.504H50.311L30.8673 5.28235H65.4004L84.8441 29.504Z" fill="#5D6D7E"/>
<path d="M34.7561 11.1918L20.0556 29.504H10.4961L29.9398 5.28235H30.0129L34.7561 11.1918Z" fill="#5D6D7E"/>
<path d="M37.9135 19.3741H35.7158V21.5877H37.9135V19.3741Z" fill="#5D6D7E"/>
<path d="M35.0522 19.3741H32.8545V21.5877H35.0522V19.3741Z" fill="#5D6D7E"/>
<path d="M37.9135 22.1609H35.7158V24.3744H37.9135V22.1609Z" fill="#5D6D7E"/>
<path d="M35.0522 22.1609H32.8545V24.3744H35.0522V22.1609Z" fill="#5D6D7E"/>
<path d="M64.4478 0H59.5209V4.43432H64.4478V0Z" fill="#5D6D7E"/>
<path d="M58.2633 41.003C59.8403 40.2713 61.5048 39.7483 63.2152 39.4471C66.6568 38.8265 70.1899 38.9489 73.581 39.8064C75.2667 40.2252 76.8916 40.8617 78.4152 41.7002C76.7098 41.4037 75.0437 41.1054 73.3741 40.8934C71.7044 40.6814 70.0383 40.5341 68.3687 40.4802C66.699 40.4263 65.0258 40.4424 63.3472 40.5431C61.6686 40.6437 59.9847 40.8198 58.2633 41.003Z" fill="#5D6D7E"/>
<path d="M20.0307 37.5282C18.5887 37.7519 17.1224 37.7664 15.6763 37.5714C14.2238 37.3832 12.7979 37.0256 11.4273 36.5059C10.0549 35.9878 8.74787 35.3088 7.53317 34.4828C6.31832 33.6689 5.22766 32.6811 4.29553 31.5505C5.58702 32.2279 6.825 32.9053 8.08973 33.5126C9.35446 34.1199 10.6281 34.675 11.925 35.1727C13.2218 35.6704 14.5454 36.0963 15.894 36.4736C17.2425 36.8509 18.6179 37.1779 20.0307 37.5282Z" fill="#5D6D7E"/>
<path d="M4.2812 20.8043C4.22203 20.875 4.15763 20.9411 4.08855 21.002C4.02036 21.0647 3.94628 21.1207 3.86736 21.1691H3.8959C3.73249 20.7615 3.64365 20.3274 3.63368 19.888C3.6243 19.4652 3.69015 19.0441 3.82811 18.6447C3.96612 18.2653 4.17097 17.9141 4.43283 17.6079C4.46494 17.5702 4.49526 17.5325 4.52737 17.4965L4.63797 17.3923L4.6897 17.342L4.745 17.2917L4.85738 17.2001C4.92937 17.1351 5.00566 17.075 5.08571 17.0204C5.16598 16.9665 5.24803 16.918 5.33009 16.8731L4.48634 16.6736C4.70143 16.9533 4.86459 17.2698 4.96797 17.6079C5.07659 17.9564 5.12604 18.3209 5.11425 18.686C5.10092 19.0672 5.02309 19.4433 4.88414 19.7982C4.73954 20.1647 4.53582 20.5047 4.2812 20.8043ZM4.32758 20.8528C4.64624 20.5933 4.92148 20.2839 5.14279 19.9365C5.37265 19.5788 5.54428 19.1863 5.65118 18.774C5.76257 18.3476 5.80711 17.9063 5.78318 17.466C5.75706 17.0083 5.66079 16.5573 5.49777 16.1292L5.26231 15.495L4.65402 15.9298C4.55591 16.016 4.46315 16.1095 4.37396 16.1957C4.28538 16.2879 4.20143 16.3844 4.12244 16.485L4.00649 16.6359C3.98664 16.6606 3.96818 16.6864 3.9512 16.7132L3.89947 16.7922L3.796 16.9503C3.76389 17.0042 3.73535 17.0599 3.70503 17.1156C3.46961 17.5505 3.31429 18.0247 3.24659 18.5153C3.18591 18.9895 3.21008 19.4709 3.31794 19.9365C3.42008 20.3846 3.60134 20.8106 3.85309 21.1942L3.86736 21.214L3.88163 21.2014C3.95298 21.1403 4.02612 21.0846 4.09925 21.0217L4.32758 20.8528Z" fill="#5D6D7E"/>
<path d="M4.61825 27.2634C4.5176 27.2368 4.4187 27.2037 4.32214 27.1646C4.22431 27.1261 4.13049 27.078 4.04208 27.0209V27.0532C4.37345 26.6802 4.76935 26.371 5.21048 26.1405C5.63389 25.9182 6.09384 25.7751 6.56798 25.7183C7.02313 25.6661 7.48395 25.6989 7.92725 25.8153L8.08958 25.8566L8.24655 25.9141L8.32504 25.9411C8.35131 25.9494 8.37694 25.9596 8.40175 25.9716L8.55337 26.0399C8.6533 26.0841 8.75041 26.1345 8.84414 26.1908C8.93819 26.2458 9.02929 26.3058 9.11706 26.3705L8.89408 25.402C8.7221 25.7634 8.48637 26.0903 8.19839 26.3669C7.89824 26.6557 7.55136 26.8909 7.17269 27.0622C6.77751 27.2398 6.3553 27.3485 5.92401 27.3838C5.48516 27.4155 5.04412 27.3748 4.61825 27.2634ZM4.59328 27.3335C5.01619 27.5316 5.46787 27.6602 5.93115 27.7144C6.40698 27.7701 6.88854 27.75 7.35821 27.6551C7.84605 27.5544 8.31542 27.378 8.74959 27.1323C9.20106 26.8766 9.61028 26.5517 9.96259 26.1692L10.487 25.6069L9.73962 25.2008C9.60583 25.1433 9.46847 25.0912 9.33112 25.0463C9.19356 25.0008 9.05361 24.963 8.91192 24.9331L8.70143 24.8882C8.66575 24.8792 8.63008 24.8756 8.5944 24.8702L8.48737 24.8576L8.2751 24.8307C8.20553 24.8307 8.13239 24.8307 8.06282 24.8199C7.50635 24.7963 6.95026 24.8748 6.4217 25.0517C5.9098 25.2255 5.43352 25.4915 5.01605 25.8368C4.61308 26.1696 4.2734 26.5732 4.01354 27.0281L3.99927 27.0514L4.02067 27.0604C4.117 27.1035 4.21154 27.1503 4.30609 27.197C4.40063 27.2437 4.49695 27.2904 4.59328 27.3335Z" fill="#5D6D7E"/>
<path d="M5.02853 25.0194C4.9028 25.0779 4.77351 25.1283 4.64144 25.1703C4.57584 25.1918 4.50915 25.2098 4.44165 25.2242C4.37412 25.2407 4.3056 25.2527 4.23651 25.2601L4.27219 25.2871C4.29033 24.6186 4.4256 23.9587 4.67177 23.3376C4.91054 22.7418 5.25374 22.1941 5.68498 21.7206C6.09889 21.2683 6.59397 20.8988 7.14415 20.6318C7.40958 20.5027 7.68676 20.3999 7.97184 20.3245C8.25092 20.2499 8.53644 20.2024 8.82451 20.1826L7.77562 19.3813C7.9091 19.9023 7.95076 20.443 7.8987 20.9785C7.87142 21.2536 7.8213 21.5258 7.74886 21.7925C7.67596 22.0647 7.57926 22.3298 7.45988 22.5848C7.21646 23.1097 6.88451 23.5882 6.47878 23.9988C6.05616 24.4192 5.56578 24.7643 5.02853 25.0194ZM5.06242 25.1128C5.66667 24.954 6.24012 24.694 6.75884 24.3438C7.02544 24.1673 7.27667 23.9684 7.50983 23.7491C7.5687 23.6934 7.62578 23.6359 7.68821 23.5694C7.75065 23.5029 7.79881 23.4508 7.85589 23.3897L8.01644 23.2101L8.17163 23.0196C8.37075 22.7564 8.54965 22.4783 8.70678 22.1877C8.86936 21.8927 9.00834 21.5851 9.12241 21.2678C9.35867 20.6136 9.49636 19.9274 9.5309 19.2321L9.58799 18.2134L8.48202 18.4308C8.10781 18.5413 7.7447 18.6869 7.39745 18.8656C7.05326 19.0431 6.72655 19.253 6.4217 19.4926C5.2479 20.4082 4.45536 21.7318 4.19905 23.2047C4.08063 23.8958 4.08365 24.6024 4.20797 25.2925V25.3284L4.23651 25.3194C4.30251 25.2997 4.37208 25.2835 4.43808 25.2655L4.64144 25.217C4.7895 25.1829 4.92685 25.1541 5.06242 25.1128Z" fill="#5D6D7E"/>
<path d="M3.43915 26.2662C3.42962 26.3709 3.41293 26.4747 3.38921 26.5771C3.36771 26.6806 3.33604 26.7817 3.29466 26.8789L3.32499 26.8663C2.90549 26.5982 2.53848 26.2547 2.24221 25.853C1.95454 25.4684 1.73875 25.0343 1.60538 24.5719C1.48199 24.1275 1.43968 23.6642 1.48051 23.2046C1.48051 23.1489 1.48051 23.0932 1.49657 23.0375L1.52511 22.8722L1.53938 22.7896C1.54362 22.7623 1.54958 22.7352 1.55722 22.7087L1.60003 22.547C1.62686 22.4402 1.66022 22.3352 1.69992 22.2326C1.73738 22.1302 1.78198 22.0313 1.82836 21.9343L0.916825 22.3116C1.29845 22.4265 1.65667 22.609 1.97463 22.8506C2.30514 23.1001 2.59158 23.4038 2.82195 23.749C3.05879 24.111 3.23309 24.5107 3.33747 24.9313C3.44431 25.3675 3.47867 25.8186 3.43915 26.2662ZM3.51229 26.2788C3.63857 25.8268 3.69099 25.3571 3.66748 24.8881C3.64617 24.4036 3.54801 23.9256 3.37672 23.4723C3.20018 23.0037 2.95157 22.5659 2.64 22.1751C2.31615 21.7676 1.93164 21.413 1.50014 21.124L0.865094 20.6946L0.586817 21.5031C0.552925 21.6468 0.524384 21.7906 0.502978 21.9343C0.479009 22.0787 0.464706 22.2246 0.460166 22.3709L0.449463 22.5865C0.449463 22.6225 0.449463 22.6584 0.449463 22.6943V22.8039V23.0177C0.449463 23.0896 0.465517 23.1615 0.472653 23.2316C0.539471 23.791 0.706911 24.3335 0.966772 24.8324C1.22125 25.3124 1.55896 25.7426 1.96393 26.1027C2.35555 26.4485 2.80569 26.7205 3.29288 26.9059L3.31964 26.9148V26.8933C3.34639 26.7909 3.37672 26.6884 3.40704 26.586C3.43737 26.4836 3.48375 26.383 3.51229 26.2788Z" fill="#5D6D7E"/>
<path d="M2.83444 36.4412C2.70957 35.9669 2.59541 35.4907 2.50087 35.0038C2.45984 34.8062 2.42416 34.6085 2.39027 34.4091C2.2581 33.6248 2.1889 32.8311 2.18335 32.0356C2.18858 31.2389 2.28192 30.4452 2.46162 29.6693C2.65322 28.8918 2.92961 28.138 3.28575 27.4216C2.89795 28.1264 2.58923 28.8724 2.3653 29.646C2.15017 30.4244 2.0233 31.2248 1.98713 32.032C1.9562 32.8411 1.9932 33.6513 2.09772 34.454C2.11021 34.56 2.12448 34.6642 2.13875 34.7684C2.19583 35.1781 2.2654 35.5848 2.34746 35.9884L2.83444 36.4412Z" fill="#5D6D7E"/>
<path d="M83.433 40.3474L83.3563 40.5378C81.5987 40.0587 79.8434 39.6287 78.0905 39.2478C77.6535 39.1472 77.2111 39.0681 76.7722 38.9765L76.1158 38.8435L75.454 38.7285C74.5781 38.5488 73.6951 38.4321 72.8175 38.2991L71.4957 38.1194C71.0586 38.0565 70.6145 38.0278 70.1757 37.9793L69.5156 37.9092C69.2962 37.8858 69.075 37.8751 68.8556 37.8571C68.415 37.8266 67.9762 37.7906 67.5374 37.7637C65.7762 37.6702 64.0215 37.6499 62.2733 37.7026C60.527 37.7798 58.7842 37.8823 57.061 38.1374C56.6311 38.2003 56.1976 38.2488 55.7695 38.3171C55.3414 38.3853 54.9133 38.4482 54.4976 38.5327C53.6539 38.6854 52.8458 38.8794 52.0359 39.1094C51.2261 39.3394 50.3984 39.6053 49.5279 39.8874C48.6574 40.1695 47.7583 40.4498 46.8521 40.6923C45.0434 41.1792 43.231 41.5907 41.4204 41.9303L40.0629 42.1818L38.7233 42.4172C37.8314 42.5789 36.9287 42.719 36.0315 42.8646C34.2245 43.1413 32.4157 43.4216 30.5748 43.6066C29.6614 43.7162 28.7321 43.7863 27.8098 43.8636C27.346 43.8941 26.8787 43.9103 26.4149 43.9354L25.7174 43.9678L25.0146 43.9803C24.5472 43.9803 24.0798 43.9983 23.6107 43.9965L22.2015 43.9516C21.7341 43.9516 21.2614 43.8959 20.7923 43.8636C20.3231 43.8312 19.854 43.8025 19.383 43.7324L17.9792 43.5527C17.5118 43.4755 17.048 43.373 16.5824 43.2922C16.3505 43.2455 16.1186 43.2077 15.8867 43.1538L15.1982 42.9742L14.5114 42.7945C14.2813 42.7352 14.053 42.6795 13.8282 42.6005L12.4868 42.1603C12.2614 42.09 12.0399 42.0078 11.8232 41.9141L11.1667 41.6464L10.5121 41.3805C10.2927 41.296 10.0857 41.1792 9.87347 41.0804C9.44892 40.878 9.02675 40.6714 8.60695 40.4606C5.89774 39.0285 3.4315 37.1721 1.30041 34.9608C1.19516 34.853 1.0917 34.7416 0.990023 34.632C0.649907 34.2654 0.319899 33.8911 0 33.509L0.139138 33.3617C0.533364 33.6564 0.931156 33.9456 1.33252 34.2259C1.44847 34.3068 1.56441 34.3876 1.68928 34.4667C2.6579 35.1297 3.65149 35.7477 4.66113 36.3119C6.20681 37.1746 7.81717 37.9142 9.47746 38.5237C10.3141 38.786 11.1221 39.113 11.9748 39.3107L12.6045 39.4795C12.8132 39.537 13.0219 39.5963 13.2342 39.6359L14.5061 39.9018C14.7148 39.9521 14.9306 39.9808 15.1447 40.0114L15.7868 40.1048L16.4255 40.2036C16.6395 40.2324 16.8554 40.2467 17.0694 40.2701C17.5011 40.3096 17.9292 40.3581 18.3591 40.3905L19.6542 40.4444C21.3911 40.4984 23.1297 40.451 24.8612 40.3024C26.6022 40.1605 28.3485 39.9431 30.0985 39.679C31.8484 39.4149 33.6073 39.1058 35.3679 38.7806L37.9955 38.2973L39.3244 38.0529L40.632 37.7996C42.3712 37.4403 44.0961 37.0953 45.7819 36.6497C46.6274 36.4233 47.4622 36.1951 48.322 35.94C49.1818 35.6849 50.0773 35.4171 51.0192 35.1854C51.9572 34.9541 52.907 34.7742 53.8644 34.6464C54.8098 34.508 55.7427 34.4146 56.681 34.3571C57.6193 34.2996 58.554 34.2619 59.4906 34.2331C59.9579 34.2097 60.4271 34.2331 60.8944 34.2421L61.5955 34.2565C61.8291 34.2565 62.0628 34.2672 62.2965 34.2852C69.7092 34.6533 76.9397 36.7271 83.433 40.3474Z" fill="#5D6D7E"/>
</symbol>
<symbol id="insta" viewBox="0 0 18 18">
<title>insta</title>
<path fill-rule="evenodd" clip-rule="evenodd" d="M9.00081 0.800781C6.68327 0.800781 6.39243 0.810915 5.48219 0.852337C4.57374 0.893938 3.95364 1.03776 3.41106 1.24879C2.84981 1.46674 2.37372 1.7583 1.8994 2.2328C1.42473 2.70711 1.13317 3.18321 0.914502 3.74428C0.702944 4.28704 0.558942 4.90731 0.518053 5.81541C0.477342 6.72564 0.466675 7.01667 0.466675 9.3342C0.466675 11.6517 0.476986 11.9417 0.518231 12.8519C0.560009 13.7604 0.703833 14.3805 0.914679 14.9231C1.13282 15.4843 1.42437 15.9604 1.89887 16.4347C2.37301 16.9094 2.8491 17.2017 3.40999 17.4196C3.95293 17.6306 4.57321 17.7745 5.48148 17.8161C6.39171 17.8575 6.68238 17.8676 8.99974 17.8676C11.3175 17.8676 11.6074 17.8575 12.5176 17.8161C13.4261 17.7745 14.0469 17.6306 14.5898 17.4196C15.1509 17.2017 15.6263 16.9094 16.1004 16.4347C16.5751 15.9604 16.8667 15.4843 17.0853 14.9232C17.2951 14.3805 17.4391 13.7602 17.4818 12.8521C17.5227 11.9419 17.5333 11.6517 17.5333 9.3342C17.5333 7.01667 17.5227 6.72582 17.4818 5.81559C17.4391 4.90713 17.2951 4.28704 17.0853 3.74446C16.8667 3.18321 16.5751 2.70711 16.1004 2.2328C15.6258 1.75812 15.1511 1.46657 14.5893 1.24879C14.0453 1.03776 13.4249 0.893938 12.5164 0.852337C11.6062 0.810915 11.3164 0.800781 8.99814 0.800781H9.00081ZM8.23525 2.33855C8.46245 2.3382 8.71597 2.33855 9.00077 2.33855C11.2792 2.33855 11.5492 2.34673 12.449 2.38762C13.281 2.42566 13.7326 2.56469 14.0334 2.68149C14.4316 2.83616 14.7155 3.02105 15.014 3.31972C15.3127 3.61839 15.4976 3.90283 15.6526 4.30106C15.7694 4.60151 15.9086 5.05307 15.9464 5.88508C15.9873 6.78464 15.9962 7.05487 15.9962 9.33222C15.9962 11.6096 15.9873 11.8798 15.9464 12.7794C15.9084 13.6114 15.7694 14.0629 15.6526 14.3634C15.4979 14.7616 15.3127 15.0452 15.014 15.3437C14.7153 15.6423 14.4318 15.8272 14.0334 15.9819C13.7329 16.0992 13.281 16.2379 12.449 16.2759C11.5494 16.3168 11.2792 16.3257 9.00077 16.3257C6.72217 16.3257 6.45212 16.3168 5.55256 16.2759C4.72055 16.2375 4.26899 16.0985 3.96801 15.9817C3.56978 15.827 3.28533 15.6422 2.98666 15.3435C2.68799 15.0448 2.5031 14.7611 2.34808 14.3627C2.23128 14.0622 2.09208 13.6107 2.05421 12.7787C2.01332 11.8791 2.00514 11.6089 2.00514 9.33009C2.00514 7.05131 2.01332 6.78251 2.05421 5.88294C2.09226 5.05093 2.23128 4.59937 2.34808 4.29857C2.50275 3.90035 2.68799 3.6159 2.98666 3.31723C3.28533 3.01856 3.56978 2.83367 3.96801 2.67864C4.26881 2.56131 4.72055 2.42264 5.55256 2.38442C6.33977 2.34886 6.64484 2.3382 8.23525 2.33642V2.33855ZM13.5558 3.75546C12.9905 3.75546 12.5318 4.2136 12.5318 4.77911C12.5318 5.34445 12.9905 5.80312 13.5558 5.80312C14.1212 5.80312 14.5799 5.34445 14.5799 4.77911C14.5799 4.21377 14.1212 3.75546 13.5558 3.75546ZM9.00082 4.95191C6.58071 4.95191 4.61855 6.91407 4.61855 9.33418C4.61855 11.7543 6.58071 13.7156 9.00082 13.7156C11.4209 13.7156 13.3824 11.7543 13.3824 9.33418C13.3824 6.91407 11.4209 4.95191 9.00082 4.95191ZM9.00079 6.48971C10.5717 6.48971 11.8453 7.76314 11.8453 9.33418C11.8453 10.905 10.5717 12.1787 9.00079 12.1787C7.42975 12.1787 6.15632 10.905 6.15632 9.33418C6.15632 7.76314 7.42975 6.48971 9.00079 6.48971Z" fill="#070031"/>
<symbol id="youtube" viewBox="0 0 18 18">
<title>youtube</title>
<path fill-rule="evenodd" clip-rule="evenodd" d="M15.6677 0.833749C16.4021 1.03526 16.9804 1.629 17.1767 2.38301C17.5333 3.74955 17.5333 6.60086 17.5333 6.60086C17.5333 6.60086 17.5333 9.45207 17.1767 10.8187C16.9804 11.5727 16.4021 12.1665 15.6677 12.3681C14.3369 12.7342 9.00001 12.7342 9.00001 12.7342C9.00001 12.7342 3.66309 12.7342 2.33218 12.3681C1.59783 12.1665 1.0195 11.5727 0.823232 10.8187C0.466675 9.45207 0.466675 6.60086 0.466675 6.60086C0.466675 6.60086 0.466675 3.74955 0.823232 2.38301C1.0195 1.629 1.59783 1.03526 2.33218 0.833749C3.66309 0.467529 9.00001 0.467529 9.00001 0.467529C9.00001 0.467529 14.3369 0.467529 15.6677 0.833749ZM7.40002 4.20081V9.53414L11.6667 6.86757L7.40002 4.20081Z" fill="#070031"/>
</symbol>
<symbol id="linkedin" viewBox="0 0 18 18">
<title>linkedin</title>
<path fill-rule="evenodd" clip-rule="evenodd" d="M7.5208 4.33933L7.55438 4.89296L6.99479 4.82517C4.95791 4.5653 3.17843 3.684 1.66756 2.20387L0.928908 1.46946L0.73865 2.0118C0.33575 3.22076 0.593158 4.49751 1.43253 5.35621C1.8802 5.83075 1.77948 5.89855 1.00725 5.61608C0.73865 5.52569 0.503625 5.4579 0.481242 5.49179C0.4029 5.57088 0.6715 6.59907 0.884142 7.00582C1.17513 7.57075 1.76828 8.12439 2.4174 8.45205L2.96579 8.71192L2.31668 8.72322C1.68994 8.72322 1.66756 8.73452 1.73471 8.97179C1.95854 9.70621 2.84268 10.4858 3.82755 10.8248L4.52143 11.0621L3.91708 11.4236C3.02175 11.9433 1.96973 12.2371 0.917717 12.2597C0.414092 12.271 0 12.3162 0 12.3501C0 12.4631 1.36538 13.0958 2.15999 13.3444C4.54382 14.0788 7.37531 13.7624 9.50173 12.5083C11.0126 11.6157 12.5235 9.84179 13.2286 8.12439C13.6091 7.2092 13.9896 5.53699 13.9896 4.73478C13.9896 4.21504 14.0232 4.14725 14.6499 3.52582C15.0192 3.16426 15.3662 2.76881 15.4333 2.65582C15.5452 2.44115 15.534 2.44115 14.9633 2.63322C14.012 2.97218 13.8777 2.92699 14.3477 2.41855C14.6947 2.05699 15.1088 1.40167 15.1088 1.20959C15.1088 1.17569 14.9409 1.23219 14.7506 1.33387C14.5492 1.44686 14.1015 1.61634 13.7658 1.71803L13.1614 1.91011L12.613 1.53725C12.3108 1.33387 11.8856 1.1079 11.6617 1.04011C11.0909 0.881926 10.218 0.904523 9.70318 1.0853C8.30422 1.59374 7.42008 2.90439 7.5208 4.33933Z" fill="#070031"/>
</symbol>
<symbol id="gmail" viewBox="0 0 18 18">
<title>gmail</title>
<path fill-rule="evenodd" clip-rule="evenodd" d="M17.5333 9.32228C17.5333 9.89938 17.4746 10.4757 17.3592 11.0374C17.2467 11.5858 17.08 12.1242 16.8617 12.6389C16.6483 13.1445 16.3837 13.6317 16.0745 14.0861C15.77 14.5376 15.4191 14.9611 15.0337 15.3472C14.6474 15.7317 14.2224 16.0816 13.7711 16.3875C13.3152 16.6945 12.8273 16.9587 12.3215 17.173C11.806 17.3902 11.2664 17.5567 10.7184 17.669C10.1559 17.7847 9.57755 17.8438 8.99962 17.8438C8.42126 17.8438 7.8429 17.7847 7.28121 17.669C6.73244 17.5567 6.19283 17.3902 5.67779 17.173C5.17195 16.9587 4.68357 16.6945 4.22772 16.3875C3.77645 16.0816 3.35143 15.7317 2.96599 15.3472C2.58015 14.9611 2.22928 14.5376 1.92427 14.0861C1.61675 13.6317 1.35172 13.1445 1.13755 12.6389C0.919183 12.1242 0.752114 11.5858 0.639188 11.0374C0.525025 10.4757 0.466675 9.89938 0.466675 9.32228C0.466675 8.74476 0.524992 8.16723 0.639221 7.60672C0.752147 7.05831 0.919216 6.51907 1.13759 6.00521C1.35175 5.49926 1.61678 5.01162 1.9243 4.55723C2.22931 4.10538 2.58018 3.68261 2.96602 3.29605C3.35146 2.91157 3.77648 2.56251 4.22775 2.2571C4.6836 1.94876 5.17198 1.68458 5.67783 1.46986C6.19286 1.2522 6.73244 1.08537 7.28124 0.973879C7.84294 0.859047 8.4213 0.800781 8.99966 0.800781C9.57758 0.800781 10.1559 0.859047 10.7185 0.973879C11.2664 1.08541 11.806 1.25224 12.3215 1.46986C12.8273 1.68455 13.3153 1.94876 13.7711 2.2571C14.2224 2.56251 14.6475 2.91157 15.0337 3.29605C15.4191 3.68261 15.77 4.10538 16.0746 4.55723C16.3837 5.01162 16.6483 5.4993 16.8617 6.00521C17.08 6.51907 17.2467 7.05831 17.3592 7.60672C17.4746 8.16723 17.5333 8.74476 17.5333 9.32228ZM5.89026 2.74016C3.85805 3.69843 2.34131 5.56832 1.86836 7.82186C2.06048 7.82353 5.0973 7.86181 8.59622 6.93349C7.33492 4.69576 5.98735 2.8696 5.89026 2.74016ZM9.2 8.05406C5.44774 9.17579 1.84711 9.09508 1.71795 9.09011C1.71585 9.16832 1.71211 9.24403 1.71211 9.32228C1.71211 11.1917 2.41839 12.896 3.57929 14.1847C3.57678 14.1809 5.57108 10.6479 9.50377 9.37804C9.59876 9.34642 9.69546 9.31811 9.79128 9.29066C9.60838 8.87709 9.40875 8.46266 9.2 8.05406ZM13.8124 3.8607C12.5293 2.731 10.8447 2.04574 8.9996 2.04574C8.40748 2.04574 7.83286 2.11732 7.28242 2.24963C7.39157 2.39611 8.76042 4.2094 10.0067 6.49452C12.7565 5.46514 13.7944 3.88732 13.8124 3.8607ZM10.288 10.4965C10.2718 10.5018 10.2556 10.5065 10.2397 10.5123C5.93997 12.0091 4.53583 15.0255 4.52064 15.0585C5.75781 16.0192 7.30956 16.5988 8.99965 16.5988C10.0088 16.5988 10.9701 16.3936 11.8448 16.0221C11.7368 15.3863 11.3135 13.1578 10.288 10.4965ZM13.0719 15.3572C14.7082 14.2546 15.8703 12.5037 16.1945 10.4756C16.0445 10.4274 14.0057 9.78284 11.6535 10.1594C12.6093 12.7825 12.9977 14.9187 13.0719 15.3572ZM10.5676 7.57886C10.7368 7.92589 10.9006 8.27909 11.0518 8.63405C11.1056 8.76139 11.1581 8.88623 11.2093 9.01103C13.7128 8.69646 16.1792 9.22572 16.2846 9.24733C16.2679 7.52226 15.65 5.93903 14.6275 4.69954C14.6137 4.71905 13.4449 6.40546 10.5676 7.57886Z" fill="#070031"/>
</symbol>
<symbol id="send" viewBox="0 0 18 18">
<title>gmail</title>
<path fill-rule="evenodd" clip-rule="evenodd" d="M17.0303 0.969691C17.2341 1.17342 17.3031 1.47584 17.2079 1.74778L11.9579 16.7478C11.8563 17.038 11.5878 17.2369 11.2806 17.2494C10.9733 17.2619 10.6895 17.0856 10.5646 16.8046L7.6818 10.3182L1.1954 7.43538C0.914389 7.31049 0.738092 7.02671 0.750627 6.71945C0.763163 6.41219 0.961991 6.14371 1.25224 6.04213L16.2522 0.792127C16.5242 0.696948 16.8266 0.765962 17.0303 0.969691ZM9.14456 9.91612L11.167 14.4667L14.7064 4.35429L9.14456 9.91612ZM13.6457 3.29362L3.53331 6.83297L8.0839 8.85546L13.6457 3.29362Z" fill="#070031"/>
</symbol>
</defs>
</svg>
