<svg width="18" height="13" viewBox="0 0 18 13" fill="none" xmlns="http://www.w3.org/2000/svg">
<path fill-rule="evenodd" clip-rule="evenodd" d="M15.6677 0.833749C16.4021 1.03526 16.9804 1.629 17.1767 2.38301C17.5333 3.74955 17.5333 6.60086 17.5333 6.60086C17.5333 6.60086 17.5333 9.45207 17.1767 10.8187C16.9804 11.5727 16.4021 12.1665 15.6677 12.3681C14.3369 12.7342 9.00001 12.7342 9.00001 12.7342C9.00001 12.7342 3.66309 12.7342 2.33218 12.3681C1.59783 12.1665 1.0195 11.5727 0.823232 10.8187C0.466675 9.45207 0.466675 6.60086 0.466675 6.60086C0.466675 6.60086 0.466675 3.74955 0.823232 2.38301C1.0195 1.629 1.59783 1.03526 2.33218 0.833749C3.66309 0.467529 9.00001 0.467529 9.00001 0.467529C9.00001 0.467529 14.3369 0.467529 15.6677 0.833749ZM7.40002 4.20081V9.53414L11.6667 6.86757L7.40002 4.20081Z" fill="#070031"/>
</svg>
